<svg version="1.1" id="Layer_1" xmlns="http://www.w3.org/2000/svg" xmlns:xlink="http://www.w3.org/1999/xlink" x="0px" y="0px"
	 width="100%" viewBox="0 0 400 224" enable-background="new 0 0 400 224" xml:space="preserve">
<path fill="none" opacity="1.000000" stroke="none" 
	d="
M303.000000,225.000000 
	C202.000031,225.000000 101.500061,225.000000 1.000067,225.000000 
	C1.000045,150.333389 1.000045,75.666771 1.000022,1.000118 
	C134.333237,1.000078 267.666473,1.000078 400.999817,1.000039 
	C400.999878,75.666557 400.999878,150.333115 400.999939,224.999832 
	C368.500000,225.000000 336.000000,225.000000 303.000000,225.000000 
M49.000549,33.349129 
	C50.485447,38.562130 51.119576,44.230553 53.619339,48.900288 
	C60.346565,61.467247 72.254807,68.360054 84.731705,73.757118 
	C97.151794,79.129608 109.708481,78.122826 121.392448,70.854668 
	C131.344101,64.664116 136.323196,54.877563 139.997803,44.267689 
	C142.573105,36.831844 145.751160,29.483437 144.755020,20.999161 
	C142.613281,20.999161 140.806946,20.999161 139.000595,20.999161 
	C112.881546,20.999153 86.762497,20.999146 60.643448,20.999142 
	C49.001644,20.999140 49.001644,20.999142 49.000549,33.349129 
M359.999725,191.323181 
	C360.331818,187.409851 361.068451,183.480423 360.913361,179.586502 
	C360.570465,170.977066 355.113251,166.889435 346.998779,169.000854 
	C341.859802,170.338043 336.756989,171.891190 331.763031,173.693893 
	C318.349152,178.535995 304.794342,181.235489 290.697845,176.975235 
	C283.603333,174.831116 276.604340,172.369568 269.502655,170.250946 
	C265.310699,169.000366 263.653473,170.539825 265.030548,174.806030 
	C268.283600,184.884171 271.933380,194.834229 275.479370,204.998535 
	C297.868286,204.998535 320.153534,205.008499 342.438812,204.989914 
	C346.756653,204.986313 352.161743,206.421936 355.086304,204.371277 
	C358.008362,202.322388 358.449554,196.733734 359.969666,192.693588 
	C360.025330,192.545700 359.989624,192.363434 359.999725,191.323181 
M81.500000,204.998764 
	C112.538429,204.998764 143.576859,204.998764 176.040833,204.998764 
	C172.062973,201.624283 169.479904,198.747574 166.304733,196.874603 
	C158.400726,192.212128 150.399734,187.645233 142.125473,183.693771 
	C125.384827,175.699127 107.909416,172.455978 89.487503,176.995407 
	C73.960114,180.821579 63.363441,190.540100 55.442215,204.998764 
	C64.323730,204.998764 72.411865,204.998764 81.500000,204.998764 
M385.000275,39.500587 
	C385.000275,33.407619 385.000275,27.314650 385.000275,21.283287 
	C369.654633,21.283287 354.914215,21.283287 340.167267,21.283287 
	C341.156403,47.287567 355.715515,74.886848 385.000275,76.440659 
	C385.000275,64.453644 385.000275,52.477039 385.000275,39.500587 
M58.159286,196.274948 
	C58.772682,194.310211 59.691811,192.384766 59.950100,190.374405 
	C61.691010,176.824219 54.254303,167.528046 44.856331,159.523514 
	C39.781822,155.201416 33.547077,153.216019 26.642218,153.966309 
	C22.869259,154.376297 17.100716,158.639435 17.068243,161.896851 
	C16.926188,176.147278 17.007093,190.399933 17.007093,204.998703 
	C24.324614,204.998703 31.161533,204.493423 37.891129,205.127396 
	C46.188496,205.909058 52.710045,203.539291 58.159286,196.274948 
M361.934814,165.663208 
	C364.813721,172.969925 365.206604,180.564301 365.119385,188.337082 
	C365.071014,192.646103 366.051270,197.040085 367.137817,201.248611 
	C367.518555,202.723221 369.510223,204.681534 370.926208,204.823486 
	C375.485168,205.280518 380.118652,204.993683 384.851379,204.993683 
	C384.851379,182.475632 384.851379,160.519470 384.851379,137.614777 
	C379.500824,139.894714 374.158447,141.469025 369.568085,144.273972 
	C360.131165,150.040390 357.691986,155.352020 361.934814,165.663208 
M239.502075,204.999710 
	C245.646347,204.999756 251.790604,205.002579 257.934875,204.998993 
	C262.981323,204.996033 264.477020,203.286728 265.054840,198.152908 
	C265.902771,190.619263 261.373322,186.252533 256.032471,182.619385 
	C242.893051,173.681198 226.695389,178.391724 219.129120,189.546112 
	C216.587814,193.292572 217.879150,197.449493 219.759567,201.578659 
	C221.432510,205.252197 224.075729,205.021637 227.045242,205.004929 
	C230.864532,204.983429 234.684021,204.999710 239.502075,204.999710 
M45.211945,21.014059 
	C35.935398,21.014059 26.658850,21.014059 16.999809,21.014059 
	C16.999809,22.932928 16.999748,24.392529 16.999819,25.852129 
	C17.000206,33.847599 16.846159,41.847256 17.062708,49.836868 
	C17.180443,54.180771 21.901966,56.718433 25.712046,54.660583 
	C29.120811,52.819489 32.570293,50.956322 35.666214,48.652012 
	C44.402752,42.149372 49.065018,30.097258 45.211945,21.014059 
M319.754974,58.785194 
	C320.562317,52.049088 318.900604,46.100319 313.866699,41.391876 
	C310.027344,37.800777 307.093719,38.179008 303.852936,42.525314 
	C297.735504,50.729645 301.643219,58.329960 310.349426,61.948914 
	C313.817505,63.390511 317.450409,64.399124 319.754974,58.785194 
M55.138588,111.615501 
	C53.106819,110.587929 50.878403,108.436104 49.081356,108.750443 
	C44.311054,109.584846 38.902206,109.865181 36.099430,114.960938 
	C35.830830,115.449280 36.516441,116.422943 36.668098,117.189308 
	C37.135895,119.553307 37.742352,121.909454 37.958923,124.299110 
	C38.311008,128.184128 40.674461,129.948761 44.414383,128.840439 
	C51.327324,126.791786 56.365070,119.374924 55.138588,111.615501 
M76.805450,106.306816 
	C78.690399,111.009315 82.926476,112.551521 87.253578,113.309593 
	C90.464371,113.872078 93.306824,112.093681 92.878960,108.425690 
	C92.439392,104.657364 91.589798,100.706985 89.849571,97.399246 
	C88.643639,95.107063 85.614929,92.386856 83.418182,92.401993 
	C81.317619,92.416458 78.566078,95.363373 77.343903,97.677856 
	C76.154282,99.930672 76.540848,103.015800 76.805450,106.306816 
M279.477356,21.999546 
	C274.330139,22.466827 270.052979,25.834171 270.001587,29.459665 
	C269.941864,33.670818 274.041718,37.508217 279.134430,37.994781 
	C282.957550,38.360046 286.145203,37.355713 286.940613,33.167404 
	C288.011322,27.529596 285.228790,23.122385 279.477356,21.999546 
M326.632446,141.960175 
	C322.377045,140.967758 319.078583,143.402634 318.345673,149.711548 
	C318.045990,152.291046 320.527252,155.257538 322.013336,157.895889 
	C322.189880,158.209305 324.154266,157.748520 325.155396,157.327103 
	C331.979828,154.454468 332.780701,148.852982 326.632446,141.960175 
M33.737953,56.068169 
	C31.942604,56.720100 30.058109,57.203579 28.386034,58.088455 
	C27.415007,58.602322 26.236977,59.680164 26.095291,60.643024 
	C25.432192,65.149223 33.939053,71.337112 38.067429,69.406471 
	C39.153084,68.898766 40.394009,67.992577 40.828884,66.959953 
	C42.165936,63.785099 38.137199,57.006622 33.737953,56.068169 
M349.195251,65.003487 
	C348.196350,65.010696 346.763123,64.598953 346.278046,65.101822 
	C344.670624,66.768234 343.076874,68.624954 342.191132,70.711441 
	C341.892761,71.414284 343.491272,73.700752 344.626343,74.091599 
	C348.429443,75.401093 350.541504,72.303970 352.289124,69.842110 
	C352.788971,69.138008 350.833374,66.690857 349.195251,65.003487 
z"/>
<path fill="#aeb8de" opacity="1.000000" stroke="none" 
	d="
M49.000404,32.874756 
	C49.001644,20.999142 49.001644,20.999140 60.643448,20.999142 
	C86.762497,20.999146 112.881546,20.999153 139.000595,20.999161 
	C140.806946,20.999161 142.613281,20.999161 144.755020,20.999161 
	C145.751160,29.483437 142.573105,36.831844 139.997803,44.267689 
	C136.323196,54.877563 131.344101,64.664116 121.392448,70.854668 
	C109.708481,78.122826 97.151794,79.129608 84.731705,73.757118 
	C72.254807,68.360054 60.346565,61.467247 53.619339,48.900288 
	C51.119576,44.230553 50.485447,38.562130 49.000404,32.874756 
z"/>
<path fill="#aeb8de" opacity="1.000000" stroke="none" 
	d="
M359.998108,191.760178 
	C359.989624,192.363434 360.025330,192.545700 359.969666,192.693588 
	C358.449554,196.733734 358.008362,202.322388 355.086304,204.371277 
	C352.161743,206.421936 346.756653,204.986313 342.438812,204.989914 
	C320.153534,205.008499 297.868286,204.998535 275.479370,204.998535 
	C271.933380,194.834229 268.283600,184.884171 265.030548,174.806030 
	C263.653473,170.539825 265.310699,169.000366 269.502655,170.250946 
	C276.604340,172.369568 283.603333,174.831116 290.697845,176.975235 
	C304.794342,181.235489 318.349152,178.535995 331.763031,173.693893 
	C336.756989,171.891190 341.859802,170.338043 346.998779,169.000854 
	C355.113251,166.889435 360.570465,170.977066 360.913361,179.586502 
	C361.068451,183.480423 360.331818,187.409851 359.998108,191.760178 
z"/>
<path fill="#798cd3" opacity="1.000000" stroke="none" 
	d="
M81.000000,204.998764 
	C72.411865,204.998764 64.323730,204.998764 55.442215,204.998764 
	C63.363441,190.540100 73.960114,180.821579 89.487503,176.995407 
	C107.909416,172.455978 125.384827,175.699127 142.125473,183.693771 
	C150.399734,187.645233 158.400726,192.212128 166.304733,196.874603 
	C169.479904,198.747574 172.062973,201.624283 176.040833,204.998764 
	C143.576859,204.998764 112.538429,204.998764 81.000000,204.998764 
z"/>
<path fill="#798cd3" opacity="1.000000" stroke="none" 
	d="
M385.000275,40.000511 
	C385.000275,52.477039 385.000275,64.453644 385.000275,76.440659 
	C355.715515,74.886848 341.156403,47.287567 340.167267,21.283287 
	C354.914215,21.283287 369.654633,21.283287 385.000275,21.283287 
	C385.000275,27.314650 385.000275,33.407619 385.000275,40.000511 
z"/>
<path fill="#6c7ccc" opacity="1.000000" stroke="none" 
	d="
M57.914246,196.571350 
	C52.710045,203.539291 46.188496,205.909058 37.891129,205.127396 
	C31.161533,204.493423 24.324614,204.998703 17.007093,204.998703 
	C17.007093,190.399933 16.926188,176.147278 17.068243,161.896851 
	C17.100716,158.639435 22.869259,154.376297 26.642218,153.966309 
	C33.547077,153.216019 39.781822,155.201416 44.856331,159.523514 
	C54.254303,167.528046 61.691010,176.824219 59.950100,190.374405 
	C59.691811,192.384766 58.772682,194.310211 57.914246,196.571350 
z"/>
<path fill="#4d66c8" opacity="1.000000" stroke="none" 
	d="
M361.698761,165.315247 
	C357.691986,155.352020 360.131165,150.040390 369.568085,144.273972 
	C374.158447,141.469025 379.500824,139.894714 384.851379,137.614777 
	C384.851379,160.519470 384.851379,182.475632 384.851379,204.993683 
	C380.118652,204.993683 375.485168,205.280518 370.926208,204.823486 
	C369.510223,204.681534 367.518555,202.723221 367.137817,201.248611 
	C366.051270,197.040085 365.071014,192.646103 365.119385,188.337082 
	C365.206604,180.564301 364.813721,172.969925 361.698761,165.315247 
z"/>
<path fill="#4d66c8" opacity="1.000000" stroke="none" 
	d="
M239.002747,204.999710 
	C234.684021,204.999710 230.864532,204.983429 227.045242,205.004929 
	C224.075729,205.021637 221.432510,205.252197 219.759567,201.578659 
	C217.879150,197.449493 216.587814,193.292572 219.129120,189.546112 
	C226.695389,178.391724 242.893051,173.681198 256.032471,182.619385 
	C261.373322,186.252533 265.902771,190.619263 265.054840,198.152908 
	C264.477020,203.286728 262.981323,204.996033 257.934875,204.998993 
	C251.790604,205.002579 245.646347,204.999756 239.002747,204.999710 
z"/>
<path fill="#4d66c8" opacity="1.000000" stroke="none" 
	d="
M45.682121,21.068249 
	C49.065018,30.097258 44.402752,42.149372 35.666214,48.652012 
	C32.570293,50.956322 29.120811,52.819489 25.712046,54.660583 
	C21.901966,56.718433 17.180443,54.180771 17.062708,49.836868 
	C16.846159,41.847256 17.000206,33.847599 16.999819,25.852129 
	C16.999748,24.392529 16.999809,22.932928 16.999809,21.014059 
	C26.658850,21.014059 35.935398,21.014059 45.682121,21.068249 
z"/>
<path fill="#6c7ccc" opacity="1.000000" stroke="none" 
	d="
M319.460205,59.079514 
	C317.450409,64.399124 313.817505,63.390511 310.349426,61.948914 
	C301.643219,58.329960 297.735504,50.729645 303.852936,42.525314 
	C307.093719,38.179008 310.027344,37.800777 313.866699,41.391876 
	C318.900604,46.100319 320.562317,52.049088 319.460205,59.079514 
z"/>
<path fill="#aeb8de" opacity="1.000000" stroke="none" 
	d="
M55.425877,111.910606 
	C56.365070,119.374924 51.327324,126.791786 44.414383,128.840439 
	C40.674461,129.948761 38.311008,128.184128 37.958923,124.299110 
	C37.742352,121.909454 37.135895,119.553307 36.668098,117.189308 
	C36.516441,116.422943 35.830830,115.449280 36.099430,114.960938 
	C38.902206,109.865181 44.311054,109.584846 49.081356,108.750443 
	C50.878403,108.436104 53.106819,110.587929 55.425877,111.910606 
z"/>
<path fill="#4d66c8" opacity="1.000000" stroke="none" 
	d="
M76.520401,106.021149 
	C76.540848,103.015800 76.154282,99.930672 77.343903,97.677856 
	C78.566078,95.363373 81.317619,92.416458 83.418182,92.401993 
	C85.614929,92.386856 88.643639,95.107063 89.849571,97.399246 
	C91.589798,100.706985 92.439392,104.657364 92.878960,108.425690 
	C93.306824,112.093681 90.464371,113.872078 87.253578,113.309593 
	C82.926476,112.551521 78.690399,111.009315 76.520401,106.021149 
z"/>
<path fill="#aeb8de" opacity="1.000000" stroke="none" 
	d="
M279.890747,21.999693 
	C285.228790,23.122385 288.011322,27.529596 286.940613,33.167404 
	C286.145203,37.355713 282.957550,38.360046 279.134430,37.994781 
	C274.041718,37.508217 269.941864,33.670818 270.001587,29.459665 
	C270.052979,25.834171 274.330139,22.466827 279.890747,21.999693 
z"/>
<path fill="#798cd3" opacity="1.000000" stroke="none" 
	d="
M327.014099,142.018188 
	C332.780701,148.852982 331.979828,154.454468 325.155396,157.327103 
	C324.154266,157.748520 322.189880,158.209305 322.013336,157.895889 
	C320.527252,155.257538 318.045990,152.291046 318.345673,149.711548 
	C319.078583,143.402634 322.377045,140.967758 327.014099,142.018188 
z"/>
<path fill="#798cd3" opacity="1.000000" stroke="none" 
	d="
M34.142860,56.037300 
	C38.137199,57.006622 42.165936,63.785099 40.828884,66.959953 
	C40.394009,67.992577 39.153084,68.898766 38.067429,69.406471 
	C33.939053,71.337112 25.432192,65.149223 26.095291,60.643024 
	C26.236977,59.680164 27.415007,58.602322 28.386034,58.088455 
	C30.058109,57.203579 31.942604,56.720100 34.142860,56.037300 
z"/>
<path fill="#4d66c8" opacity="1.000000" stroke="none" 
	d="
M349.599487,65.023224 
	C350.833374,66.690857 352.788971,69.138008 352.289124,69.842110 
	C350.541504,72.303970 348.429443,75.401093 344.626343,74.091599 
	C343.491272,73.700752 341.892761,71.414284 342.191132,70.711441 
	C343.076874,68.624954 344.670624,66.768234 346.278046,65.101822 
	C346.763123,64.598953 348.196350,65.010696 349.599487,65.023224 
z"/>
</svg>