<svg version="1.1" id="Layer_1" xmlns="http://www.w3.org/2000/svg" xmlns:xlink="http://www.w3.org/1999/xlink" x="0px" y="0px"
	 width="100%" viewBox="0 0 1005 959" enable-background="new 0 0 1005 959" xml:space="preserve">
<path fill="#AEB8DE" opacity="1.000000" stroke="none" 
	d="
M697.000000,960.000000 
	C464.666656,960.000000 232.833328,960.000000 1.000000,960.000000 
	C1.000000,640.333313 1.000000,320.666656 1.000000,1.000000 
	C336.000000,1.000000 671.000000,1.000000 1006.000000,1.000000 
	C1006.000000,320.666656 1006.000000,640.333313 1006.000000,960.000000 
	C903.166687,960.000000 800.333313,960.000000 697.000000,960.000000 
M493.912903,377.233154 
	C492.124969,377.312592 490.337036,377.391998 487.630280,377.140839 
	C479.900085,376.512024 479.888397,376.510132 478.657104,384.073547 
	C478.309540,386.208466 478.289307,388.425079 477.705780,390.487335 
	C476.393158,395.126343 477.974670,396.651886 482.757935,396.845673 
	C499.924500,397.541138 510.571442,405.674377 515.486816,421.832306 
	C536.229858,490.018982 556.874268,558.235596 577.541321,626.445312 
	C579.746948,633.724609 581.865173,641.030518 584.161438,648.788452 
	C591.636902,646.237061 598.480347,643.707336 605.451599,641.600769 
	C609.151367,640.482788 611.166687,638.530945 612.478638,634.786560 
	C630.760742,582.608704 649.208740,530.488953 667.643738,478.364655 
	C668.217041,476.743683 669.088196,475.228027 670.455505,472.306396 
	C671.812256,475.144257 672.734131,476.606018 673.235840,478.200012 
	C675.835571,486.459656 678.408386,494.729492 680.844543,503.038605 
	C694.618164,550.018127 708.379272,597.001282 722.037109,644.014465 
	C723.057617,647.527466 724.491272,648.705750 728.051025,647.320862 
	C733.325928,645.268677 738.656372,643.317505 744.071472,641.682129 
	C747.748352,640.571655 749.787781,638.540161 751.205750,634.879883 
	C774.004517,576.027344 796.962708,517.236633 819.869507,458.425934 
	C825.671509,443.530060 831.398926,428.605225 837.202698,413.710052 
	C840.053345,406.393677 843.490784,399.664642 852.262451,397.842224 
	C855.845764,397.097748 860.547119,396.827881 862.502136,394.479401 
	C864.620422,391.934784 864.182190,387.226685 864.751648,383.446014 
	C864.973389,381.973755 865.164246,380.398346 864.846191,378.987885 
	C864.702759,378.352081 863.279053,378.004974 862.109497,377.219666 
	C861.278137,377.340240 860.446716,377.460846 858.682434,377.334351 
	C847.733276,377.570679 836.784180,377.807007 825.584595,377.366028 
	C822.210754,365.296387 811.918396,363.716278 801.756104,362.253815 
	C804.761475,353.614655 807.881592,345.564758 810.344849,337.318634 
	C813.068970,328.199371 814.988770,318.871307 812.898010,309.268677 
	C810.571411,298.583130 802.272034,293.052795 791.724915,295.818787 
	C787.685181,296.878235 784.059937,299.561737 780.294128,301.594788 
	C779.239014,302.164429 778.356018,303.052948 776.986938,304.109406 
	C775.800720,300.184906 774.866638,296.835052 773.777588,293.536346 
	C768.681946,278.101624 762.720337,263.097260 750.577759,251.610001 
	C747.895996,249.073013 747.025513,246.804047 747.511536,242.991837 
	C749.713989,225.717590 736.178345,214.610565 719.413757,219.522461 
	C713.128052,221.364120 708.737671,225.476685 705.372925,230.856339 
	C704.132202,232.840149 703.027100,234.134186 700.221313,233.242538 
	C682.119812,227.490021 664.030090,229.343445 646.015381,233.784088 
	C638.103882,235.734283 638.157227,235.826935 633.289124,229.011993 
	C632.132874,227.393372 630.850891,225.830780 629.435486,224.436676 
	C621.603577,216.722809 611.449463,216.666382 603.754700,224.570023 
	C597.002991,231.505066 594.067993,239.840012 595.290344,249.654846 
	C595.524414,251.534714 594.654907,254.412811 593.258362,255.502701 
	C578.127991,267.310760 569.547729,283.090424 564.722107,301.265381 
	C564.196655,303.244141 563.615662,305.208160 562.941040,307.602783 
	C561.090088,306.526764 559.961182,305.886566 558.847656,305.220673 
	C548.781372,299.201080 537.081360,304.961853 535.862671,316.604828 
	C535.604126,319.075256 535.634888,321.590027 535.710754,324.078949 
	C536.088867,336.490173 540.855774,347.718567 545.201660,359.062317 
	C545.925537,360.951721 546.421387,362.928497 547.237915,365.558228 
	C544.353271,365.245300 542.369263,364.679657 540.474487,364.896057 
	C536.265015,365.376770 531.951416,365.794312 527.962341,367.099640 
	C524.494263,368.234467 522.513062,370.868134 524.823669,374.953247 
	C525.311157,375.815002 524.692017,377.302704 523.624817,378.152771 
	C513.874756,377.967133 504.124695,377.781464 493.912903,377.233154 
M394.387390,485.181030 
	C395.656586,500.100830 397.034943,515.012329 398.169861,529.942322 
	C399.960999,553.503845 401.297028,577.103638 403.388763,600.637207 
	C404.768677,616.161987 397.237244,621.701355 385.727142,624.465698 
	C384.432098,624.776794 382.937744,624.718750 381.866272,625.373047 
	C380.749390,626.055054 379.446014,627.293030 379.248169,628.461365 
	C378.583435,632.387085 378.397461,636.392334 377.985046,640.362671 
	C377.624634,643.832397 378.958221,645.264587 382.574554,644.774536 
	C387.845795,644.060242 393.148468,643.218445 398.448303,643.139587 
	C417.053314,642.862854 435.663818,642.758789 454.269867,642.900940 
	C458.441162,642.932739 460.965820,642.162048 461.444244,637.597839 
	C461.755524,634.627869 462.514679,631.702942 463.107178,628.764648 
	C464.281189,622.942810 463.383850,622.016418 457.329559,622.854858 
	C444.463593,624.636536 438.590332,620.813171 435.206512,608.415649 
	C434.724609,606.650024 434.143280,604.869202 433.988953,603.062866 
	C431.242615,570.918823 428.478821,538.775879 425.890656,506.618805 
	C424.769928,492.694153 423.955231,478.743042 423.150574,464.795319 
	C422.221100,448.684448 421.331604,432.569183 420.666595,416.445862 
	C420.273346,406.912323 424.330688,399.943970 433.763641,396.961395 
	C438.179077,395.565308 442.762726,394.695648 447.280243,393.630310 
	C450.008209,392.986938 453.141205,392.935303 453.676819,389.204773 
	C454.126068,386.075775 454.536316,382.938263 454.844849,379.792816 
	C455.147064,376.711853 454.182465,375.487122 450.577179,375.637543 
	C429.492096,376.517365 408.437927,379.705261 387.292664,377.005524 
	C383.230347,376.486877 381.562744,378.340424 380.476837,381.780853 
	C378.524689,387.966003 376.475464,394.123322 374.327942,400.243561 
	C353.715851,458.987457 333.080658,517.723267 312.409088,576.446167 
	C311.858093,578.011353 310.821289,579.405518 309.463501,581.875366 
	C308.161438,579.147888 307.279449,577.594788 306.655914,575.944092 
	C303.656219,568.003235 300.633820,560.068970 297.788666,552.072205 
	C288.471619,525.884827 278.884308,499.786621 270.046082,473.437714 
	C259.730347,442.684052 250.024460,411.724548 240.249664,380.792511 
	C239.029694,376.931946 237.028885,375.979401 233.349319,376.292877 
	C225.071899,376.998016 216.767029,377.924042 208.481155,377.852600 
	C197.515411,377.757996 186.563431,376.547394 175.594086,376.271545 
	C162.604370,375.944855 166.064133,374.377686 162.740356,386.601471 
	C161.658463,390.580322 163.059860,392.343842 167.165314,393.071716 
	C173.678864,394.226532 180.357712,395.273285 186.477280,397.634186 
	C195.856476,401.252655 199.754791,408.677185 198.800522,418.718750 
	C196.187210,446.217651 193.642120,473.723846 190.848816,501.204651 
	C187.719604,531.990112 184.434402,562.760559 181.002213,593.513611 
	C180.378693,599.100281 179.080444,604.679871 177.453964,610.069702 
	C175.265869,617.320618 169.902130,622.116821 162.764359,623.818054 
	C153.673615,625.984741 154.909851,624.987183 153.233994,635.500732 
	C152.999100,636.974365 153.122040,638.502258 152.933197,639.986511 
	C152.396774,644.202026 154.114761,645.012024 158.145874,644.402466 
	C177.467651,641.480896 196.882248,640.780457 216.358185,642.816589 
	C227.892563,644.022522 227.892212,643.997009 230.446838,632.682373 
	C230.813721,631.057434 231.333313,629.459595 231.593658,627.819336 
	C232.143494,624.354919 231.235886,622.436035 227.068680,622.833740 
	C222.612137,623.259033 218.047836,623.462341 213.611038,622.996399 
	C204.633377,622.053650 201.204071,618.118774 201.700943,609.117310 
	C202.654434,591.843384 203.770782,574.573608 205.162094,557.329773 
	C207.275391,531.137512 209.710831,504.971344 211.950851,478.789062 
	C213.354904,462.378021 214.638672,445.956696 216.035446,429.545013 
	C216.103912,428.740479 216.739410,427.984161 217.593719,426.193146 
	C218.713364,428.529999 219.526367,429.898346 220.050476,431.369629 
	C228.765793,455.835663 237.433731,480.318634 246.134872,504.789764 
	C257.514252,536.793274 268.904327,568.792969 280.308319,600.787720 
	C285.564056,615.533203 290.815765,630.280640 296.217163,644.972778 
	C296.764832,646.462463 298.498077,648.779175 299.402374,648.656494 
	C303.348419,648.121460 307.482971,648.030518 309.267303,642.795776 
	C314.690948,626.884338 320.604462,611.139648 326.343079,595.335754 
	C346.119781,540.871826 365.898682,486.408630 385.706177,431.955872 
	C386.293182,430.342072 387.208008,428.847534 387.969971,427.297424 
	C388.518433,427.364227 389.066895,427.431061 389.615356,427.497894 
	C391.184113,446.420166 392.752899,465.342407 394.387390,485.181030 
z"/>
<path fill="#4C66C8" opacity="1.000000" stroke="none" 
	d="
M825.835022,378.043335 
	C836.784180,377.807007 847.733276,377.570679 859.346985,377.468079 
	C860.819763,377.576813 861.627991,377.551849 862.436218,377.526886 
	C863.279053,378.004974 864.702759,378.352081 864.846191,378.987885 
	C865.164246,380.398346 864.973389,381.973755 864.751648,383.446014 
	C864.182190,387.226685 864.620422,391.934784 862.502136,394.479401 
	C860.547119,396.827881 855.845764,397.097748 852.262451,397.842224 
	C843.490784,399.664642 840.053345,406.393677 837.202698,413.710052 
	C831.398926,428.605225 825.671509,443.530060 819.869507,458.425934 
	C796.962708,517.236633 774.004517,576.027344 751.205750,634.879883 
	C749.787781,638.540161 747.748352,640.571655 744.071472,641.682129 
	C738.656372,643.317505 733.325928,645.268677 728.051025,647.320862 
	C724.491272,648.705750 723.057617,647.527466 722.037109,644.014465 
	C708.379272,597.001282 694.618164,550.018127 680.844543,503.038605 
	C678.408386,494.729492 675.835571,486.459656 673.235840,478.200012 
	C672.734131,476.606018 671.812256,475.144257 670.455505,472.306396 
	C669.088196,475.228027 668.217041,476.743683 667.643738,478.364655 
	C649.208740,530.488953 630.760742,582.608704 612.478638,634.786560 
	C611.166687,638.530945 609.151367,640.482788 605.451599,641.600769 
	C598.480347,643.707336 591.636902,646.237061 584.161438,648.788452 
	C581.865173,641.030518 579.746948,633.724609 577.541321,626.445312 
	C556.874268,558.235596 536.229858,490.018982 515.486816,421.832306 
	C510.571442,405.674377 499.924500,397.541138 482.757935,396.845673 
	C477.974670,396.651886 476.393158,395.126343 477.705780,390.487335 
	C478.289307,388.425079 478.309540,386.208466 478.657104,384.073547 
	C479.888397,376.510132 479.900085,376.512024 488.365784,377.352295 
	C490.859070,377.574463 492.616852,377.585144 494.374634,377.595825 
	C504.124695,377.781464 513.874756,377.967133 524.391724,378.346375 
	C529.425659,378.337494 533.692749,378.135010 538.430908,377.957581 
	C546.774902,377.633728 554.659363,377.444885 562.516174,376.874298 
	C567.037231,376.545959 571.513367,375.599731 576.394592,374.920593 
	C578.617004,374.164673 580.454529,373.419769 582.627380,372.784912 
	C584.688171,373.691833 586.413574,374.488770 588.098389,375.650330 
	C588.033875,377.239746 588.010071,378.464569 587.820312,380.080933 
	C587.391541,382.612061 586.906555,384.752319 586.912781,386.891144 
	C586.925354,391.235535 585.109497,392.785339 580.625610,393.135895 
	C574.026611,393.651825 567.413940,394.886810 560.991089,396.533051 
	C553.253540,398.516357 550.282715,402.512421 550.952332,410.348450 
	C551.501709,416.777069 552.719849,423.232239 554.412415,429.466370 
	C569.638916,485.548889 585.030945,541.586426 600.412415,597.626831 
	C600.762146,598.901001 601.557312,600.052979 602.842163,602.697510 
	C604.499817,599.105347 605.650146,597.008179 606.465210,594.787903 
	C622.766235,550.384521 638.490051,505.757660 655.615784,461.675293 
	C660.989014,447.844543 661.233093,435.803040 655.952026,422.116302 
	C650.529785,408.063538 641.812500,399.549927 627.024170,397.232635 
	C625.216553,396.949402 623.394348,396.681213 621.570129,396.597900 
	C617.569702,396.415283 616.630737,394.478882 617.280396,390.665955 
	C617.931763,386.843292 617.794128,382.886230 618.235229,378.675049 
	C624.615784,378.132629 630.763367,377.903198 637.271545,377.742920 
	C638.117798,377.769318 638.603516,377.726532 639.549683,377.730530 
	C654.803162,377.813324 669.613586,378.288757 684.382019,377.703125 
	C691.963867,377.402496 699.470642,375.207947 707.315186,373.673462 
	C712.719421,373.623566 717.823364,373.700928 722.917969,373.960754 
	C724.292480,374.030853 725.638733,374.654510 727.150879,375.212830 
	C727.789734,375.791138 728.275757,376.180664 728.475403,376.760681 
	C727.789612,378.219971 727.390198,379.488800 727.007690,381.216003 
	C726.975708,383.006561 726.895325,384.338409 726.883850,385.670898 
	C726.843018,390.412628 725.457458,393.028503 719.736877,393.226898 
	C713.155273,393.455109 706.526062,394.924347 700.108582,396.590363 
	C692.570129,398.547363 689.083862,404.581970 690.343079,412.268127 
	C690.961548,416.043213 691.649414,419.829498 692.655701,423.515167 
	C708.402649,481.188049 724.201965,538.846680 740.022949,596.499329 
	C740.470337,598.129700 741.289917,599.657898 741.935974,601.233765 
	C742.392273,601.247620 742.848511,601.261475 743.304749,601.275330 
	C744.170898,599.446533 745.183838,597.671814 745.881287,595.780823 
	C757.409119,564.523804 769.185547,533.354248 780.309570,501.953705 
	C790.485535,473.229462 800.181213,444.328186 809.605225,415.347809 
	C813.294861,404.001648 809.537231,398.008118 797.716553,396.056915 
	C789.735779,394.739594 781.476440,395.018219 773.335999,394.780334 
	C760.063904,394.392487 760.465027,397.208801 763.041138,382.199615 
	C764.582214,378.537292 762.627075,377.913147 759.998413,377.617676 
	C759.997620,377.420410 759.995361,377.025909 760.355713,376.999634 
	C762.114380,376.282562 763.512573,375.591766 765.205566,375.125641 
	C766.974304,375.570435 768.448242,375.790558 770.381409,375.935669 
	C787.414551,376.578979 803.988525,377.297272 820.867432,378.057007 
	C822.726624,378.080078 824.280823,378.061707 825.835022,378.043335 
z"/>
<path fill="#4D66C8" opacity="1.000000" stroke="none" 
	d="
M394.354553,484.722839 
	C392.752899,465.342407 391.184113,446.420166 389.615356,427.497894 
	C389.066895,427.431061 388.518433,427.364227 387.969971,427.297424 
	C387.208008,428.847534 386.293182,430.342072 385.706177,431.955872 
	C365.898682,486.408630 346.119781,540.871826 326.343079,595.335754 
	C320.604462,611.139648 314.690948,626.884338 309.267303,642.795776 
	C307.482971,648.030518 303.348419,648.121460 299.402374,648.656494 
	C298.498077,648.779175 296.764832,646.462463 296.217163,644.972778 
	C290.815765,630.280640 285.564056,615.533203 280.308319,600.787720 
	C268.904327,568.792969 257.514252,536.793274 246.134872,504.789764 
	C237.433731,480.318634 228.765793,455.835663 220.050476,431.369629 
	C219.526367,429.898346 218.713364,428.529999 217.593719,426.193146 
	C216.739410,427.984161 216.103912,428.740479 216.035446,429.545013 
	C214.638672,445.956696 213.354904,462.378021 211.950851,478.789062 
	C209.710831,504.971344 207.275391,531.137512 205.162094,557.329773 
	C203.770782,574.573608 202.654434,591.843384 201.700943,609.117310 
	C201.204071,618.118774 204.633377,622.053650 213.611038,622.996399 
	C218.047836,623.462341 222.612137,623.259033 227.068680,622.833740 
	C231.235886,622.436035 232.143494,624.354919 231.593658,627.819336 
	C231.333313,629.459595 230.813721,631.057434 230.446838,632.682373 
	C227.892212,643.997009 227.892563,644.022522 216.358185,642.816589 
	C196.882248,640.780457 177.467651,641.480896 158.145874,644.402466 
	C154.114761,645.012024 152.396774,644.202026 152.933197,639.986511 
	C153.122040,638.502258 152.999100,636.974365 153.233994,635.500732 
	C154.909851,624.987183 153.673615,625.984741 162.764359,623.818054 
	C169.902130,622.116821 175.265869,617.320618 177.453964,610.069702 
	C179.080444,604.679871 180.378693,599.100281 181.002213,593.513611 
	C184.434402,562.760559 187.719604,531.990112 190.848816,501.204651 
	C193.642120,473.723846 196.187210,446.217651 198.800522,418.718750 
	C199.754791,408.677185 195.856476,401.252655 186.477280,397.634186 
	C180.357712,395.273285 173.678864,394.226532 167.165314,393.071716 
	C163.059860,392.343842 161.658463,390.580322 162.740356,386.601471 
	C166.064133,374.377686 162.604370,375.944855 175.594086,376.271545 
	C186.563431,376.547394 197.515411,377.757996 208.481155,377.852600 
	C216.767029,377.924042 225.071899,376.998016 233.349319,376.292877 
	C237.028885,375.979401 239.029694,376.931946 240.249664,380.792511 
	C250.024460,411.724548 259.730347,442.684052 270.046082,473.437714 
	C278.884308,499.786621 288.471619,525.884827 297.788666,552.072205 
	C300.633820,560.068970 303.656219,568.003235 306.655914,575.944092 
	C307.279449,577.594788 308.161438,579.147888 309.463501,581.875366 
	C310.821289,579.405518 311.858093,578.011353 312.409088,576.446167 
	C333.080658,517.723267 353.715851,458.987457 374.327942,400.243561 
	C376.475464,394.123322 378.524689,387.966003 380.476837,381.780853 
	C381.562744,378.340424 383.230347,376.486877 387.292664,377.005524 
	C408.437927,379.705261 429.492096,376.517365 450.577179,375.637543 
	C454.182465,375.487122 455.147064,376.711853 454.844849,379.792816 
	C454.536316,382.938263 454.126068,386.075775 453.676819,389.204773 
	C453.141205,392.935303 450.008209,392.986938 447.280243,393.630310 
	C442.762726,394.695648 438.179077,395.565308 433.763641,396.961395 
	C424.330688,399.943970 420.273346,406.912323 420.666595,416.445862 
	C421.331604,432.569183 422.221100,448.684448 423.150574,464.795319 
	C423.955231,478.743042 424.769928,492.694153 425.890656,506.618805 
	C428.478821,538.775879 431.242615,570.918823 433.988953,603.062866 
	C434.143280,604.869202 434.724609,606.650024 435.206512,608.415649 
	C438.590332,620.813171 444.463593,624.636536 457.329559,622.854858 
	C463.383850,622.016418 464.281189,622.942810 463.107178,628.764648 
	C462.514679,631.702942 461.755524,634.627869 461.444244,637.597839 
	C460.965820,642.162048 458.441162,642.932739 454.269867,642.900940 
	C435.663818,642.758789 417.053314,642.862854 398.448303,643.139587 
	C393.148468,643.218445 387.845795,644.060242 382.574554,644.774536 
	C378.958221,645.264587 377.624634,643.832397 377.985046,640.362671 
	C378.397461,636.392334 378.583435,632.387085 379.248169,628.461365 
	C379.446014,627.293030 380.749390,626.055054 381.866272,625.373047 
	C382.937744,624.718750 384.432098,624.776794 385.727142,624.465698 
	C397.237244,621.701355 404.768677,616.161987 403.388763,600.637207 
	C401.297028,577.103638 399.960999,553.503845 398.169861,529.942322 
	C397.034943,515.012329 395.656586,500.100830 394.354553,484.722839 
z"/>
<path fill="#1D40BE" opacity="1.000000" stroke="none" 
	d="
M537.959717,377.932526 
	C533.692749,378.135010 529.425659,378.337494 524.870728,378.520996 
	C524.692017,377.302704 525.311157,375.815002 524.823669,374.953247 
	C522.513062,370.868134 524.494263,368.234467 527.962341,367.099640 
	C531.951416,365.794312 536.265015,365.376770 540.474487,364.896057 
	C542.369263,364.679657 544.353271,365.245300 547.237915,365.558228 
	C546.421387,362.928497 545.925537,360.951721 545.201660,359.062317 
	C540.855774,347.718567 536.088867,336.490173 535.710754,324.078949 
	C535.634888,321.590027 535.604126,319.075256 535.862671,316.604828 
	C537.081360,304.961853 548.781372,299.201080 558.847656,305.220673 
	C559.961182,305.886566 561.090088,306.526764 562.941040,307.602783 
	C563.615662,305.208160 564.196655,303.244141 564.722107,301.265381 
	C569.547729,283.090424 578.127991,267.310760 593.258362,255.502701 
	C594.654907,254.412811 595.524414,251.534714 595.290344,249.654846 
	C594.067993,239.840012 597.002991,231.505066 603.754700,224.570023 
	C611.449463,216.666382 621.603577,216.722809 629.435486,224.436676 
	C630.850891,225.830780 632.132874,227.393372 633.289124,229.011993 
	C638.157227,235.826935 638.103882,235.734283 646.015381,233.784088 
	C664.030090,229.343445 682.119812,227.490021 700.221313,233.242538 
	C703.027100,234.134186 704.132202,232.840149 705.372925,230.856339 
	C708.737671,225.476685 713.128052,221.364120 719.413757,219.522461 
	C736.178345,214.610565 749.713989,225.717590 747.511536,242.991837 
	C747.025513,246.804047 747.895996,249.073013 750.577759,251.610001 
	C762.720337,263.097260 768.681946,278.101624 773.777588,293.536346 
	C774.866638,296.835052 775.800720,300.184906 776.986938,304.109406 
	C778.356018,303.052948 779.239014,302.164429 780.294128,301.594788 
	C784.059937,299.561737 787.685181,296.878235 791.724915,295.818787 
	C802.272034,293.052795 810.571411,298.583130 812.898010,309.268677 
	C814.988770,318.871307 813.068970,328.199371 810.344849,337.318634 
	C807.881592,345.564758 804.761475,353.614655 801.756104,362.253815 
	C811.918396,363.716278 822.210754,365.296387 825.709839,377.704681 
	C824.280823,378.061707 822.726624,378.080078 820.846008,377.671631 
	C820.209290,376.477173 820.041748,375.604675 819.566833,374.957764 
	C814.123413,367.542114 806.120483,367.210236 797.986389,367.177582 
	C796.439087,367.171387 794.893311,366.795502 793.346802,366.590210 
	C793.946838,364.969482 794.329346,363.220490 795.193298,361.755310 
	C796.868958,358.913635 799.417053,356.453918 800.530762,353.439514 
	C803.296753,345.953156 806.034912,338.365570 807.680115,330.585144 
	C808.966492,324.502014 809.223145,318.026337 808.802307,311.801788 
	C808.288391,304.199005 802.163818,299.393005 794.967468,299.718658 
	C787.526917,300.055359 777.733154,308.118378 778.139587,314.415436 
	C778.698853,323.081787 780.166199,331.689545 781.368408,341.314789 
	C784.800903,335.500427 787.723877,330.549103 790.646912,325.597778 
	C791.233765,325.852753 791.820618,326.107697 792.407471,326.362671 
	C792.149841,327.831299 792.202087,329.446747 791.586487,330.745697 
	C785.739685,343.082123 779.774963,355.362579 773.855286,367.664551 
	C772.521729,370.435760 771.232117,373.228088 769.922241,376.010681 
	C768.448242,375.790558 766.974304,375.570435 765.317261,374.790222 
	C767.217102,370.244843 769.904541,366.452301 771.250366,362.231873 
	C773.651611,354.701996 776.893372,346.908997 776.871643,339.234314 
	C776.797729,313.254028 769.316895,288.980835 756.304932,266.547638 
	C753.693115,262.044647 749.827148,258.059662 745.858398,254.622131 
	C742.894531,252.055008 741.549866,250.296631 742.582031,245.989365 
	C746.196167,230.907104 735.638672,220.851746 720.486023,224.247818 
	C713.409119,225.833954 710.102295,231.180145 707.460815,236.997345 
	C705.915405,240.400635 704.488586,240.776840 701.050232,239.439209 
	C696.445740,237.647903 691.504944,236.403595 686.599060,235.762299 
	C670.446777,233.650772 654.705627,236.081604 639.359497,241.182800 
	C636.379211,242.173477 635.005737,241.746078 633.567139,238.853043 
	C631.810547,235.320465 629.655579,231.815521 626.979431,228.945114 
	C620.911804,222.436996 613.158264,222.343002 606.615845,228.337860 
	C600.367371,234.063370 597.230103,240.889175 600.263367,249.381485 
	C601.875366,253.894821 601.632080,257.274414 596.737793,259.625336 
	C594.407654,260.744568 592.416321,262.747528 590.550415,264.627014 
	C571.058655,284.260101 564.309021,308.562225 565.465088,335.412262 
	C566.087524,349.869568 569.471863,363.516785 582.292053,372.674866 
	C580.454529,373.419769 578.617004,374.164673 576.329590,374.633423 
	C575.537659,373.892670 575.195496,373.428070 574.707214,372.671814 
	C566.602173,358.198456 558.600525,344.040192 550.766113,329.790039 
	C550.145264,328.660767 550.684265,326.893799 550.684265,325.423187 
	C551.186768,325.390564 551.689331,325.357941 552.191833,325.325317 
	C555.432434,331.938934 558.673035,338.552551 562.342834,346.042084 
	C562.342834,336.247131 562.049622,327.789520 562.440369,319.363617 
	C562.726746,313.187866 560.359192,309.756409 553.334412,308.129181 
	C546.898804,306.638428 542.135864,308.718445 540.886108,314.679138 
	C539.920959,319.282745 539.904602,324.273834 540.466370,328.973114 
	C542.051086,342.229431 548.024048,354.014313 553.608643,365.918884 
	C554.535889,367.895447 554.309082,370.413391 554.725891,373.497528 
	C545.551514,369.574127 537.837585,367.519348 530.031738,371.787842 
	C529.898254,372.490875 529.764771,373.193939 529.631287,373.896973 
	C532.412964,374.652405 535.194641,375.407837 537.971924,376.458496 
	C537.964905,377.146667 537.962341,377.539581 537.959717,377.932526 
z"/>
<path fill="#1D40BE" opacity="1.000000" stroke="none" 
	d="
M494.143768,377.414490 
	C492.616852,377.585144 490.859070,377.574463 488.825195,377.517578 
	C490.337036,377.391998 492.124969,377.312592 494.143768,377.414490 
z"/>
<path fill="#1D40BE" opacity="1.000000" stroke="none" 
	d="
M862.272827,377.373291 
	C861.627991,377.551849 860.819763,377.576813 859.813477,377.591614 
	C860.446716,377.460846 861.278137,377.340240 862.272827,377.373291 
z"/>
<path fill="#ACB6DE" opacity="1.000000" stroke="none" 
	d="
M582.627380,372.784882 
	C569.471863,363.516785 566.087524,349.869568 565.465088,335.412262 
	C564.309021,308.562225 571.058655,284.260101 590.550415,264.627014 
	C592.416321,262.747528 594.407654,260.744568 596.737793,259.625336 
	C601.632080,257.274414 601.875366,253.894821 600.263367,249.381485 
	C597.230103,240.889175 600.367371,234.063370 606.615845,228.337860 
	C613.158264,222.343002 620.911804,222.436996 626.979431,228.945114 
	C629.655579,231.815521 631.810547,235.320465 633.567139,238.853043 
	C635.005737,241.746078 636.379211,242.173477 639.359497,241.182800 
	C654.705627,236.081604 670.446777,233.650772 686.599060,235.762299 
	C691.504944,236.403595 696.445740,237.647903 701.050232,239.439209 
	C704.488586,240.776840 705.915405,240.400635 707.460815,236.997345 
	C710.102295,231.180145 713.409119,225.833954 720.486023,224.247818 
	C735.638672,220.851746 746.196167,230.907104 742.582031,245.989365 
	C741.549866,250.296631 742.894531,252.055008 745.858398,254.622131 
	C749.827148,258.059662 753.693115,262.044647 756.304932,266.547638 
	C769.316895,288.980835 776.797729,313.254028 776.871643,339.234314 
	C776.893372,346.908997 773.651611,354.701996 771.250366,362.231873 
	C769.904541,366.452301 767.217102,370.244843 765.022461,374.565552 
	C763.512573,375.591766 762.114380,376.282562 760.125366,376.852844 
	C758.691467,376.834564 757.848267,376.936737 756.540771,376.971985 
	C748.375732,376.669708 740.674927,376.434357 732.676147,375.969879 
	C730.584717,375.501862 728.791382,375.262970 726.997986,375.024078 
	C725.638733,374.654510 724.292480,374.030853 722.917969,373.960754 
	C717.823364,373.700928 712.719421,373.623566 706.911133,373.565887 
	C701.803101,373.426788 697.402954,373.199463 692.735352,372.772339 
	C690.982117,372.739258 689.496338,372.906006 687.560059,373.047333 
	C682.407227,373.337128 677.704956,373.652374 672.675110,373.751892 
	C669.242249,373.754608 666.136841,373.973053 662.594055,374.202057 
	C656.160156,374.424377 650.163696,374.636139 644.124146,374.542908 
	C644.058533,373.828369 644.036011,373.418732 644.376282,372.947388 
	C647.370728,371.495880 649.976929,370.054535 652.645935,368.740906 
	C653.755798,368.194702 655.519958,367.210114 656.100708,367.635162 
	C660.934204,371.172577 666.440002,370.431824 671.877747,370.842163 
	C679.124084,371.388977 684.936829,369.653809 688.588928,363.040039 
	C689.029663,363.109955 689.381104,363.101227 689.677856,363.224365 
	C690.753906,363.670807 691.824097,364.135437 692.874390,364.639343 
	C706.819092,371.330139 720.038513,369.279572 732.771790,361.342438 
	C738.631165,357.690094 740.916077,351.844147 742.125732,345.505493 
	C742.383179,344.156128 741.309509,342.552704 740.849121,341.066345 
	C740.343323,340.964081 739.837524,340.861786 739.331665,340.759521 
	C738.218140,354.136414 729.554749,360.098724 718.283936,363.439819 
	C706.682312,366.878906 696.474854,362.242035 686.509583,357.272705 
	C681.884399,366.394012 678.029846,368.684814 672.897705,365.613831 
	C674.717590,364.039276 676.518188,362.481354 679.063538,360.279083 
	C676.446960,359.497406 675.086609,359.091003 673.748413,358.691223 
	C674.944946,349.538116 674.331238,348.320190 667.205444,345.516724 
	C668.149048,340.107208 670.184570,339.233215 674.245850,342.629059 
	C677.689941,345.508850 680.802917,348.824890 684.429932,351.437561 
	C692.885498,357.528381 702.123901,360.682617 712.639282,357.495789 
	C721.992004,354.661285 729.177795,342.753632 726.238159,332.824280 
	C724.797119,336.366791 723.684082,338.810669 722.797607,341.334106 
	C719.362366,351.112823 712.719482,355.402557 702.515442,354.052094 
	C693.822327,352.901611 686.213989,349.155487 680.033142,343.019135 
	C676.140442,339.154480 672.766846,335.006256 666.413818,337.339172 
	C665.952026,337.508759 665.201355,336.963867 664.609680,336.696686 
	C658.427795,333.905273 655.331909,334.943939 652.203247,341.091522 
	C650.695435,344.054291 649.618103,347.240845 648.048523,350.166565 
	C644.612976,356.570374 636.388672,359.688873 628.573242,357.752991 
	C622.230957,356.182007 620.312805,353.049561 619.897522,344.074188 
	C619.798645,341.937164 619.178528,339.824310 618.798157,337.700317 
	C618.298645,337.725616 617.799194,337.750946 617.299683,337.776276 
	C616.931152,340.636749 616.224487,343.502350 616.267639,346.356598 
	C616.346680,351.587952 616.997253,356.712921 622.132568,359.880890 
	C631.761047,365.820740 646.867493,361.535370 651.777344,351.388794 
	C653.081787,348.692902 653.914551,345.662811 655.682556,343.330963 
	C657.071533,341.498932 659.567139,340.505890 661.571167,339.140137 
	C661.683411,341.556030 662.030273,343.991913 661.826538,346.380859 
	C661.687134,348.016205 660.780945,349.586151 659.837769,352.263123 
	C663.088440,351.560577 665.107239,350.921631 667.163696,350.759003 
	C668.320496,350.667511 669.539551,351.362122 670.730530,351.702576 
	C670.308838,353.044312 670.167053,354.594971 669.373108,355.658875 
	C668.783875,356.448486 667.307251,356.529449 666.298828,357.063721 
	C664.805237,357.855042 663.376160,358.768158 661.919556,359.629395 
	C663.187500,360.437897 664.572571,361.113251 665.688660,362.094513 
	C666.688660,362.973785 667.392578,364.189880 668.227173,365.257385 
	C666.938965,365.758026 665.426453,366.951538 664.407104,366.621582 
	C661.936829,365.821899 659.780273,364.086487 657.330566,363.177002 
	C655.930969,362.657379 653.464783,362.315125 652.734680,363.084595 
	C637.290039,379.361633 606.720215,366.503571 602.398010,348.852112 
	C602.195129,348.023346 601.495544,347.316223 601.027344,346.552429 
	C600.444153,346.663879 599.861023,346.775299 599.277893,346.886749 
	C599.555542,349.184204 599.302185,351.718353 600.202515,353.738251 
	C604.161194,362.618958 611.512756,367.866882 620.213684,371.546814 
	C622.170166,372.374329 624.000244,373.500824 625.373657,374.389130 
	C612.618896,374.620941 600.378967,374.953339 588.139038,375.285736 
	C586.413574,374.488770 584.688171,373.691833 582.627380,372.784882 
M638.517700,284.994019 
	C642.488464,284.277740 646.459290,283.561462 651.671753,282.621185 
	C650.321411,281.215790 649.288147,279.222839 647.875549,278.902435 
	C646.108032,278.501556 644.032898,279.752869 642.082886,279.782257 
	C639.833618,279.816223 637.575867,279.295471 635.321838,279.015625 
	C637.226257,277.918976 639.122253,276.806976 641.045227,275.743927 
	C641.303833,275.600983 641.763489,275.819000 642.019043,275.674103 
	C643.020752,275.105927 643.977966,274.459229 644.951721,273.841705 
	C643.928833,273.069977 643.010376,272.013977 641.859375,271.591309 
	C640.004578,270.910217 637.996399,270.646759 635.521973,270.086700 
	C638.572998,265.283600 642.447754,266.716034 645.863098,266.805847 
	C648.789307,266.882812 651.191467,266.703583 650.796875,262.708191 
	C646.830933,262.708191 643.068176,262.555298 639.322571,262.743805 
	C633.616394,263.030914 631.701355,265.379547 632.061218,271.041870 
	C632.141724,272.309052 632.106812,273.656525 631.764893,274.865173 
	C630.182556,280.457825 631.966553,283.591736 638.517700,284.994019 
M715.341431,246.615326 
	C716.651123,244.784164 717.814087,242.818146 719.325745,241.172485 
	C720.231201,240.186752 721.682190,239.702118 722.888062,238.992294 
	C723.576233,240.171082 724.655884,241.285797 724.861755,242.543549 
	C725.178284,244.477554 724.866760,246.509827 724.870972,248.500305 
	C724.883667,254.459671 727.418152,256.285950 734.713867,254.775909 
	C733.176941,253.017120 731.936340,251.597443 730.967529,250.488724 
	C731.524353,249.241943 732.785828,247.777924 732.463379,246.887512 
	C731.443115,244.070053 729.798645,241.482925 728.454041,238.777695 
	C726.263733,234.371155 722.508423,232.676620 718.729553,234.443893 
	C714.722717,236.317810 712.623718,242.540344 715.341431,246.615326 
M621.856812,246.621887 
	C623.094849,247.977692 624.332886,249.333496 625.570923,250.689285 
	C626.274353,250.141830 626.977783,249.594376 627.681152,249.046906 
	C625.404175,245.258148 623.666016,240.964447 620.710999,237.811020 
	C617.177185,234.039902 611.080261,235.193375 609.662170,239.871140 
	C607.842224,245.874405 605.533875,252.197449 608.764160,258.810364 
	C614.270081,257.786682 614.067993,254.857849 612.963318,250.442474 
	C612.226990,247.499069 612.478455,242.247223 614.223755,241.172531 
	C617.879089,238.921646 619.425598,243.636948 621.856812,246.621887 
z"/>
<path fill="#ADB7DE" opacity="1.000000" stroke="none" 
	d="
M762.949463,382.576172 
	C760.465027,397.208801 760.063904,394.392487 773.335999,394.780334 
	C781.476440,395.018219 789.735779,394.739594 797.716553,396.056915 
	C809.537231,398.008118 813.294861,404.001648 809.605225,415.347809 
	C800.181213,444.328186 790.485535,473.229462 780.309570,501.953705 
	C769.185547,533.354248 757.409119,564.523804 745.881287,595.780823 
	C745.183838,597.671814 744.170898,599.446533 743.304749,601.275330 
	C742.848511,601.261475 742.392273,601.247620 741.935974,601.233765 
	C741.289917,599.657898 740.470337,598.129700 740.022949,596.499329 
	C724.201965,538.846680 708.402649,481.188049 692.655701,423.515167 
	C691.649414,419.829498 690.961548,416.043213 690.343079,412.268127 
	C689.083862,404.581970 692.570129,398.547363 700.108582,396.590363 
	C706.526062,394.924347 713.155273,393.455109 719.736877,393.226898 
	C725.457458,393.028503 726.843018,390.412628 726.883850,385.670898 
	C726.895325,384.338409 726.975708,383.006561 727.452271,381.215820 
	C739.569885,381.363556 751.259644,381.969849 762.949463,382.576172 
z"/>
<path fill="#ADB7DE" opacity="1.000000" stroke="none" 
	d="
M618.002441,378.988098 
	C617.794128,382.886230 617.931763,386.843292 617.280396,390.665955 
	C616.630737,394.478882 617.569702,396.415283 621.570129,396.597900 
	C623.394348,396.681213 625.216553,396.949402 627.024170,397.232635 
	C641.812500,399.549927 650.529785,408.063538 655.952026,422.116302 
	C661.233093,435.803040 660.989014,447.844543 655.615784,461.675293 
	C638.490051,505.757660 622.766235,550.384521 606.465210,594.787903 
	C605.650146,597.008179 604.499817,599.105347 602.842163,602.697510 
	C601.557312,600.052979 600.762146,598.901001 600.412415,597.626831 
	C585.030945,541.586426 569.638916,485.548889 554.412415,429.466370 
	C552.719849,423.232239 551.501709,416.777069 550.952332,410.348450 
	C550.282715,402.512421 553.253540,398.516357 560.991089,396.533051 
	C567.413940,394.886810 574.026611,393.651825 580.625610,393.135895 
	C585.109497,392.785339 586.925354,391.235535 586.912781,386.891144 
	C586.906555,384.752319 587.391541,382.612061 588.287292,380.138733 
	C598.614319,379.532684 608.308411,379.260376 618.002441,378.988098 
z"/>
<path fill="#A9B4DD" opacity="1.000000" stroke="none" 
	d="
M770.381409,375.935669 
	C771.232117,373.228088 772.521729,370.435760 773.855286,367.664551 
	C779.774963,355.362579 785.739685,343.082123 791.586487,330.745697 
	C792.202087,329.446747 792.149841,327.831299 792.407471,326.362671 
	C791.820618,326.107697 791.233765,325.852753 790.646912,325.597778 
	C787.723877,330.549103 784.800903,335.500427 781.368408,341.314789 
	C780.166199,331.689545 778.698853,323.081787 778.139587,314.415436 
	C777.733154,308.118378 787.526917,300.055359 794.967468,299.718658 
	C802.163818,299.393005 808.288391,304.199005 808.802307,311.801788 
	C809.223145,318.026337 808.966492,324.502014 807.680115,330.585144 
	C806.034912,338.365570 803.296753,345.953156 800.530762,353.439514 
	C799.417053,356.453918 796.868958,358.913635 795.193298,361.755310 
	C794.329346,363.220490 793.946838,364.969482 793.346802,366.590210 
	C794.893311,366.795502 796.439087,367.171387 797.986389,367.177582 
	C806.120483,367.210236 814.123413,367.542114 819.566833,374.957764 
	C820.041748,375.604675 820.209290,376.477173 820.541016,377.630249 
	C803.988525,377.297272 787.414551,376.578979 770.381409,375.935669 
z"/>
<path fill="#1338BC" opacity="1.000000" stroke="none" 
	d="
M673.002625,373.967590 
	C677.704956,373.652374 682.407227,373.337128 687.828613,373.248901 
	C690.032776,373.307983 691.517822,373.140076 693.002869,372.972137 
	C697.402954,373.199463 701.803101,373.426788 706.607300,373.761719 
	C699.470642,375.207947 691.963867,377.402496 684.382019,377.703125 
	C669.613586,378.288757 654.803162,377.813324 639.534546,377.418213 
	C639.052673,376.418976 639.046509,375.778900 639.467285,375.125122 
	C641.318542,375.023560 642.742920,374.935730 644.167236,374.847870 
	C650.163696,374.636139 656.160156,374.424377 662.936035,374.390625 
	C666.811157,374.368256 669.906860,374.167938 673.002625,373.967590 
z"/>
<path fill="#1338BC" opacity="1.000000" stroke="none" 
	d="
M618.235291,378.675079 
	C608.308411,379.260376 598.614319,379.532684 588.453308,379.747192 
	C588.010071,378.464569 588.033875,377.239746 588.098389,375.650330 
	C600.378967,374.953339 612.618896,374.620941 625.539612,374.482483 
	C626.765381,374.803162 627.310425,374.929871 628.201904,375.036530 
	C629.008789,374.997101 629.469238,374.977783 630.361084,374.971741 
	C632.231689,374.975922 633.670715,374.966797 635.423401,374.963104 
	C636.155884,374.984711 636.574707,375.000916 636.989685,375.352722 
	C636.960876,376.350128 636.935913,377.011932 636.911011,377.673767 
	C630.763367,377.903198 624.615784,378.132629 618.235291,378.675079 
z"/>
<path fill="#1338BC" opacity="1.000000" stroke="none" 
	d="
M763.041138,382.199615 
	C751.259644,381.969849 739.569885,381.363556 727.435425,380.757416 
	C727.390198,379.488800 727.789612,378.219971 728.844543,376.857330 
	C730.658081,376.575348 731.816101,376.387177 732.974121,376.199005 
	C740.674927,376.434357 748.375732,376.669708 756.782959,377.182129 
	C758.325989,377.577759 759.162598,377.696320 759.999268,377.814911 
	C762.627075,377.913147 764.582214,378.537292 763.041138,382.199615 
z"/>
<path fill="#2E4EC2" opacity="1.000000" stroke="none" 
	d="
M574.853333,372.963440 
	C575.195496,373.428070 575.537659,373.892670 575.944824,374.644470 
	C571.513367,375.599731 567.037231,376.545959 562.516174,376.874298 
	C554.659363,377.444885 546.774902,377.633728 538.430908,377.957581 
	C537.962341,377.539581 537.964905,377.146667 538.391602,376.349487 
	C550.828247,374.951324 562.840820,373.957367 574.853333,372.963440 
z"/>
<path fill="#4D66C8" opacity="1.000000" stroke="none" 
	d="
M732.676147,375.969879 
	C731.816101,376.387177 730.658081,376.575348 729.130920,376.666870 
	C728.275757,376.180664 727.789734,375.791138 727.150879,375.212830 
	C728.791382,375.262970 730.584717,375.501862 732.676147,375.969879 
z"/>
<path fill="#2043BF" opacity="1.000000" stroke="none" 
	d="
M637.271484,377.742920 
	C636.935913,377.011932 636.960876,376.350128 637.332031,375.341492 
	C638.132324,375.042755 638.586365,375.090790 639.040344,375.138855 
	C639.046509,375.778900 639.052673,376.418976 639.074097,377.371399 
	C638.603516,377.726532 638.117798,377.769318 637.271484,377.742920 
z"/>
<path fill="#4D66C8" opacity="1.000000" stroke="none" 
	d="
M759.998413,377.617676 
	C759.162598,377.696320 758.325989,377.577759 757.247192,377.249054 
	C757.848267,376.936737 758.691467,376.834564 759.765015,376.879150 
	C759.995361,377.025909 759.997620,377.420410 759.998413,377.617676 
z"/>
<path fill="#A8B3DD" opacity="1.000000" stroke="none" 
	d="
M574.707214,372.671814 
	C562.840820,373.957367 550.828247,374.951324 538.395996,376.054260 
	C535.194641,375.407837 532.412964,374.652405 529.631287,373.896973 
	C529.764771,373.193939 529.898254,372.490875 530.031738,371.787842 
	C537.837585,367.519348 545.551514,369.574127 554.725891,373.497528 
	C554.309082,370.413391 554.535889,367.895447 553.608643,365.918884 
	C548.024048,354.014313 542.051086,342.229431 540.466370,328.973114 
	C539.904602,324.273834 539.920959,319.282745 540.886108,314.679138 
	C542.135864,308.718445 546.898804,306.638428 553.334412,308.129181 
	C560.359192,309.756409 562.726746,313.187866 562.440369,319.363617 
	C562.049622,327.789520 562.342834,336.247131 562.342834,346.042084 
	C558.673035,338.552551 555.432434,331.938934 552.191833,325.325317 
	C551.689331,325.357941 551.186768,325.390564 550.684265,325.423187 
	C550.684265,326.893799 550.145264,328.660767 550.766113,329.790039 
	C558.600525,344.040192 566.602173,358.198456 574.707214,372.671814 
z"/>
<path fill="#2043BF" opacity="1.000000" stroke="none" 
	d="
M627.855408,375.056641 
	C627.310425,374.929871 626.765381,374.803162 626.054443,374.583069 
	C624.000244,373.500824 622.170166,372.374329 620.213684,371.546814 
	C611.512756,367.866882 604.161194,362.618958 600.202515,353.738251 
	C599.302185,351.718353 599.555542,349.184204 599.277893,346.886749 
	C599.861023,346.775299 600.444153,346.663879 601.027344,346.552429 
	C601.495544,347.316223 602.195129,348.023346 602.398010,348.852112 
	C606.720215,366.503571 637.290039,379.361633 652.734680,363.084595 
	C653.464783,362.315125 655.930969,362.657379 657.330566,363.177002 
	C659.780273,364.086487 661.936829,365.821899 664.407104,366.621582 
	C665.426453,366.951538 666.938965,365.758026 668.227173,365.257385 
	C667.392578,364.189880 666.688660,362.973785 665.688660,362.094513 
	C664.572571,361.113251 663.187500,360.437897 661.919556,359.629395 
	C663.376160,358.768158 664.805237,357.855042 666.298828,357.063721 
	C667.307251,356.529449 668.783875,356.448486 669.373108,355.658875 
	C670.167053,354.594971 670.308838,353.044312 670.730530,351.702576 
	C669.539551,351.362122 668.320496,350.667511 667.163696,350.759003 
	C665.107239,350.921631 663.088440,351.560577 659.837769,352.263123 
	C660.780945,349.586151 661.687134,348.016205 661.826538,346.380859 
	C662.030273,343.991913 661.683411,341.556030 661.571167,339.140137 
	C659.567139,340.505890 657.071533,341.498932 655.682556,343.330963 
	C653.914551,345.662811 653.081787,348.692902 651.777344,351.388794 
	C646.867493,361.535370 631.761047,365.820740 622.132568,359.880890 
	C616.997253,356.712921 616.346680,351.587952 616.267639,346.356598 
	C616.224487,343.502350 616.931152,340.636749 617.299683,337.776276 
	C617.799194,337.750946 618.298645,337.725616 618.798157,337.700317 
	C619.178528,339.824310 619.798645,341.937164 619.897522,344.074188 
	C620.312805,353.049561 622.230957,356.182007 628.573242,357.752991 
	C636.388672,359.688873 644.612976,356.570374 648.048523,350.166565 
	C649.618103,347.240845 650.695435,344.054291 652.203247,341.091522 
	C655.331909,334.943939 658.427795,333.905273 664.609680,336.696686 
	C665.201355,336.963867 665.952026,337.508759 666.413818,337.339172 
	C672.766846,335.006256 676.140442,339.154480 680.033142,343.019135 
	C686.213989,349.155487 693.822327,352.901611 702.515442,354.052094 
	C712.719482,355.402557 719.362366,351.112823 722.797607,341.334106 
	C723.684082,338.810669 724.797119,336.366791 726.238159,332.824280 
	C729.177795,342.753632 721.992004,354.661285 712.639282,357.495789 
	C702.123901,360.682617 692.885498,357.528381 684.429932,351.437561 
	C680.802917,348.824890 677.689941,345.508850 674.245850,342.629059 
	C670.184570,339.233215 668.149048,340.107208 667.205444,345.516724 
	C674.331238,348.320190 674.944946,349.538116 673.748413,358.691223 
	C675.086609,359.091003 676.446960,359.497406 679.063538,360.279083 
	C676.518188,362.481354 674.717590,364.039276 672.897705,365.613831 
	C678.029846,368.684814 681.884399,366.394012 686.509583,357.272705 
	C696.474854,362.242035 706.682312,366.878906 718.283936,363.439819 
	C729.554749,360.098724 738.218140,354.136414 739.331665,340.759521 
	C739.837524,340.861786 740.343323,340.964081 740.849121,341.066345 
	C741.309509,342.552704 742.383179,344.156128 742.125732,345.505493 
	C740.916077,351.844147 738.631165,357.690094 732.771790,361.342438 
	C720.038513,369.279572 706.819092,371.330139 692.874390,364.639343 
	C691.824097,364.135437 690.753906,363.670807 689.677856,363.224365 
	C689.381104,363.101227 689.029663,363.109955 688.588928,363.040039 
	C684.936829,369.653809 679.124084,371.388977 671.877747,370.842163 
	C666.440002,370.431824 660.934204,371.172577 656.100708,367.635162 
	C655.519958,367.210114 653.755798,368.194702 652.645935,368.740906 
	C649.976929,370.054535 647.370728,371.495880 643.973022,372.930786 
	C640.507874,373.636566 637.808838,374.297150 635.109802,374.957703 
	C633.670715,374.966797 632.231689,374.975922 630.324036,374.695557 
	C629.188782,374.622894 628.522095,374.839752 627.855408,375.056641 
M672.806274,359.525024 
	C672.806274,359.525024 672.502258,359.404907 672.502258,359.404907 
	C672.502258,359.404907 672.582947,359.697174 672.806274,359.525024 
z"/>
<path fill="#2043BF" opacity="1.000000" stroke="none" 
	d="
M638.108521,285.007446 
	C631.966553,283.591736 630.182556,280.457825 631.764893,274.865173 
	C632.106812,273.656525 632.141724,272.309052 632.061218,271.041870 
	C631.701355,265.379547 633.616394,263.030914 639.322571,262.743805 
	C643.068176,262.555298 646.830933,262.708191 650.796875,262.708191 
	C651.191467,266.703583 648.789307,266.882812 645.863098,266.805847 
	C642.447754,266.716034 638.572998,265.283600 635.521973,270.086700 
	C637.996399,270.646759 640.004578,270.910217 641.859375,271.591309 
	C643.010376,272.013977 643.928833,273.069977 644.951721,273.841705 
	C643.977966,274.459229 643.020752,275.105927 642.019043,275.674103 
	C641.763489,275.819000 641.303833,275.600983 641.045227,275.743927 
	C639.122253,276.806976 637.226257,277.918976 635.321838,279.015625 
	C637.575867,279.295471 639.833618,279.816223 642.082886,279.782257 
	C644.032898,279.752869 646.108032,278.501556 647.875549,278.902435 
	C649.288147,279.222839 650.321411,281.215790 651.671753,282.621185 
	C646.459290,283.561462 642.488464,284.277740 638.108521,285.007446 
z"/>
<path fill="#1D40BE" opacity="1.000000" stroke="none" 
	d="
M714.995789,246.576523 
	C712.623718,242.540344 714.722717,236.317810 718.729553,234.443893 
	C722.508423,232.676620 726.263733,234.371155 728.454041,238.777695 
	C729.798645,241.482925 731.443115,244.070053 732.463379,246.887512 
	C732.785828,247.777924 731.524353,249.241943 730.967529,250.488724 
	C731.936340,251.597443 733.176941,253.017120 734.713867,254.775909 
	C727.418152,256.285950 724.883667,254.459671 724.870972,248.500305 
	C724.866760,246.509827 725.178284,244.477554 724.861755,242.543549 
	C724.655884,241.285797 723.576233,240.171082 722.888062,238.992279 
	C721.682190,239.702118 720.231201,240.186752 719.325745,241.172485 
	C717.814087,242.818146 716.651123,244.784164 714.995789,246.576523 
z"/>
<path fill="#2043BF" opacity="1.000000" stroke="none" 
	d="
M621.673340,246.307983 
	C619.425598,243.636948 617.879089,238.921646 614.223755,241.172531 
	C612.478455,242.247223 612.226990,247.499069 612.963318,250.442474 
	C614.067993,254.857849 614.270081,257.786682 608.764160,258.810364 
	C605.533875,252.197449 607.842224,245.874405 609.662170,239.871140 
	C611.080261,235.193375 617.177185,234.039902 620.710999,237.811020 
	C623.666016,240.964447 625.404175,245.258148 627.681152,249.046906 
	C626.977783,249.594376 626.274353,250.141830 625.570923,250.689285 
	C624.332886,249.333496 623.094849,247.977692 621.673340,246.307983 
z"/>
<path fill="#4D66C8" opacity="1.000000" stroke="none" 
	d="
M672.675110,373.751892 
	C669.906860,374.167938 666.811157,374.368256 663.373413,374.380066 
	C666.136841,373.973053 669.242249,373.754608 672.675110,373.751892 
z"/>
<path fill="#4D66C8" opacity="1.000000" stroke="none" 
	d="
M635.423401,374.963135 
	C637.808838,374.297150 640.507874,373.636566 643.610168,372.992554 
	C644.036011,373.418732 644.058533,373.828369 644.124146,374.542908 
	C642.742920,374.935730 641.318542,375.023560 639.467285,375.125122 
	C638.586365,375.090790 638.132324,375.042755 637.335938,375.005920 
	C636.574707,375.000916 636.155884,374.984711 635.423401,374.963135 
z"/>
<path fill="#4C66C8" opacity="1.000000" stroke="none" 
	d="
M692.735352,372.772339 
	C691.517822,373.140076 690.032776,373.307983 688.279175,373.274353 
	C689.496338,372.906006 690.982117,372.739258 692.735352,372.772339 
z"/>
<path fill="#4C66C8" opacity="1.000000" stroke="none" 
	d="
M628.201904,375.036560 
	C628.522095,374.839752 629.188782,374.622894 629.892578,374.682251 
	C629.469238,374.977783 629.008789,374.997101 628.201904,375.036560 
z"/>
<path fill="#ACB6DE" opacity="1.000000" stroke="none" 
	d="
M672.694580,359.611084 
	C672.582947,359.697174 672.502258,359.404907 672.502258,359.404907 
	C672.502258,359.404907 672.806274,359.525024 672.694580,359.611084 
z"/>
</svg>