<svg version="1.1" id="Layer_1" xmlns="http://www.w3.org/2000/svg" xmlns:xlink="http://www.w3.org/1999/xlink" x="0px" y="0px"
	 width="100%" viewBox="0 0 400 210" enable-background="new 0 0 400 210" xml:space="preserve">
<path fill="none" opacity="1.000000" stroke="none" 
	d="
M296.000000,211.000000 
	C197.333359,211.000000 99.166725,211.000000 1.000066,211.000000 
	C1.000044,141.000046 1.000044,71.000099 1.000022,1.000113 
	C134.333237,1.000075 267.666473,1.000075 400.999817,1.000038 
	C400.999878,70.999886 400.999878,140.999771 400.999939,210.999832 
	C366.166656,211.000000 331.333344,211.000000 296.000000,211.000000 
M157.032394,132.953735 
	C157.383667,127.411484 157.734940,121.869225 158.084824,116.349022 
	C160.315063,116.056831 162.055267,115.828842 165.349579,115.397247 
	C162.966476,108.952644 160.905197,103.071686 158.458908,97.355492 
	C158.266937,96.906906 154.501633,97.004326 153.911362,97.874817 
	C150.902313,102.312439 148.313858,107.046150 145.768082,111.778389 
	C145.219757,112.797607 144.922928,114.958206 145.437149,115.337967 
	C146.582825,116.184036 148.297302,116.372757 149.813309,116.561340 
	C150.694229,116.670921 151.639709,116.261536 153.429794,115.918022 
	C152.887054,121.943611 152.389175,127.471138 151.078476,132.999527 
	C147.076538,134.468674 142.874847,135.555313 139.127609,137.512146 
	C135.206451,139.559799 131.722015,142.443726 128.057785,144.131912 
	C128.529327,141.263977 129.000870,138.396027 129.515228,135.267715 
	C131.562180,134.863708 133.898636,134.723206 135.935379,133.868515 
	C136.991425,133.425369 138.357773,131.525482 138.148697,130.612274 
	C136.517639,123.487602 134.644516,116.411186 132.569885,109.401649 
	C132.182495,108.092812 130.554718,107.151100 129.499390,106.039963 
	C128.514725,107.002953 127.161026,107.791161 126.608131,108.958626 
	C123.960823,114.548584 121.662170,120.304329 118.992027,125.882645 
	C114.980141,134.264069 114.892441,134.222092 124.385895,135.602509 
	C123.894302,139.046310 123.397865,142.524017 122.160431,145.986893 
	C120.353828,144.805664 117.873199,144.029861 116.871460,142.364502 
	C114.238953,137.988037 111.828369,133.377762 110.085251,128.585693 
	C105.114426,114.920174 97.782455,111.021454 86.382309,112.182274 
	C78.436989,112.991302 71.975441,117.798798 66.292107,123.270721 
	C54.899986,134.239044 47.392601,147.634903 43.235310,162.746414 
	C41.393536,169.441177 40.864941,176.528336 40.165958,183.480179 
	C40.025219,184.879944 41.807175,186.473007 42.702656,187.976959 
	C43.469158,186.574875 44.662468,185.247711 44.924126,183.757004 
	C45.796024,178.789688 46.024834,173.699234 47.053524,168.771500 
	C51.271923,148.564056 60.703274,131.516678 78.482292,120.176590 
	C87.129944,114.660797 97.983238,114.885178 103.701942,125.419640 
	C105.146904,128.081421 105.821297,131.151855 106.982147,133.980164 
	C108.251778,137.073471 109.276489,140.368958 111.103264,143.113525 
	C117.424438,152.610519 125.997108,153.455093 134.923569,146.726501 
	C139.379944,143.367386 144.211334,139.226456 149.370941,138.341385 
	C160.705307,136.397110 169.497528,142.022568 176.042953,151.253113 
	C182.118225,159.820587 184.156250,169.779602 185.977295,179.805481 
	C186.686661,183.710907 187.233749,187.775894 192.356964,187.829208 
	C193.893494,187.845215 195.445267,186.398224 196.990051,185.621475 
	C195.690384,184.745773 194.429367,183.801941 193.070160,183.031250 
	C192.592621,182.760452 191.874191,182.914505 192.416351,182.950089 
	C189.582230,173.428162 187.695999,164.322556 184.168411,155.904770 
	C179.197968,144.043945 170.489349,135.820877 157.032394,132.953735 
M137.652740,25.001869 
	C143.486130,25.668343 149.377594,26.016081 155.141006,27.066515 
	C167.804062,29.374470 178.661575,35.582966 187.737839,44.441250 
	C194.931320,51.461979 198.862549,60.694134 201.966415,70.174042 
	C204.698425,78.518166 208.592728,86.069183 215.391373,91.941467 
	C220.063370,95.976868 225.589844,98.295830 231.449844,97.711868 
	C242.524582,96.608231 251.149170,90.057884 259.382019,83.116875 
	C271.714844,72.719238 285.723785,68.430061 301.628479,72.079773 
	C312.849274,74.654655 323.167999,79.661469 329.021973,89.879402 
	C333.694336,98.034935 337.059418,107.114693 339.822815,116.145859 
	C343.590393,128.458725 345.385223,141.321625 351.873505,152.825943 
	C357.014587,161.941498 363.421173,169.344299 373.443542,172.961075 
	C374.696716,173.413300 376.416229,172.573227 377.919647,172.331924 
	C377.050598,171.216766 376.375916,169.822144 375.267426,169.051361 
	C373.566162,167.868393 371.444061,167.298813 369.713165,166.148911 
	C357.808441,158.240173 352.829254,145.927887 349.034241,132.977997 
	C345.863708,122.158997 343.611450,111.033569 339.862701,100.429100 
	C332.111389,78.502205 313.659332,66.863914 291.775635,66.053223 
	C277.334137,65.518234 265.272980,71.526283 254.682419,80.847015 
	C248.509720,86.279602 241.633652,90.396011 233.726700,92.692696 
	C226.093063,94.909973 216.348831,89.628899 211.693909,80.096375 
	C208.231079,73.005142 205.805984,65.414574 202.537720,58.219460 
	C195.041779,41.717167 181.938385,31.420525 165.338959,24.943737 
	C153.661819,20.387533 141.410431,19.952341 129.435898,21.301723 
	C118.126503,22.576157 107.460411,26.965248 97.325394,32.771011 
	C84.728622,39.986969 74.384247,49.690266 65.324829,60.561741 
	C53.988163,74.165947 45.302155,89.645836 39.026894,106.269485 
	C33.110016,121.943764 27.666084,137.798325 22.201233,153.638138 
	C21.769690,154.888962 22.802732,156.645081 23.155119,158.166382 
	C23.678711,158.198456 24.202303,158.230530 24.725893,158.262604 
	C25.499819,156.770370 26.481617,155.348770 27.016447,153.775269 
	C34.869991,130.669724 42.091599,107.304596 54.041855,85.843544 
	C63.790680,68.335983 76.073174,52.864021 92.545708,41.220676 
	C105.736671,31.896854 120.596275,26.586704 137.652740,25.001869 
M268.965515,161.599075 
	C264.635284,168.293442 260.102753,169.155319 253.047760,165.612137 
	C240.648987,159.385208 228.757660,164.940170 224.264740,177.785675 
	C223.678955,179.460495 225.189301,181.868454 225.728745,183.936829 
	C226.824463,182.406937 227.867508,180.835770 229.026718,179.355591 
	C231.565048,176.114426 233.676132,172.289520 236.843201,169.845108 
	C242.341064,165.601746 248.285217,168.135941 253.292862,171.187164 
	C258.449066,174.328873 264.618134,173.053314 268.803650,168.716583 
	C270.884369,166.560715 273.105316,164.537140 275.136200,162.336838 
	C279.799072,157.284973 285.464355,154.000946 292.124054,152.387848 
	C305.920258,149.046158 317.364624,152.785538 326.327972,163.834427 
	C331.278046,169.936203 334.258331,176.749619 334.115112,184.820602 
	C334.090851,186.186752 335.572052,187.579620 336.357727,188.960129 
	C337.238556,187.513199 338.769073,186.105103 338.858398,184.610870 
	C339.020111,181.904831 338.683228,179.042435 337.922516,176.429276 
	C334.183167,163.583679 326.897278,153.396866 313.837616,149.071533 
	C296.664581,143.383881 281.736145,147.767517 268.965515,161.599075 
z"/>
<path fill="#aeb8de" opacity="1.000000" stroke="none" 
	d="
M137.189575,25.002045 
	C120.596275,26.586704 105.736671,31.896854 92.545708,41.220676 
	C76.073174,52.864021 63.790680,68.335983 54.041855,85.843544 
	C42.091599,107.304596 34.869991,130.669724 27.016447,153.775269 
	C26.481617,155.348770 25.499819,156.770370 24.725893,158.262604 
	C24.202303,158.230530 23.678711,158.198456 23.155119,158.166382 
	C22.802732,156.645081 21.769690,154.888962 22.201233,153.638138 
	C27.666084,137.798325 33.110016,121.943764 39.026894,106.269485 
	C45.302155,89.645836 53.988163,74.165947 65.324829,60.561741 
	C74.384247,49.690266 84.728622,39.986969 97.325394,32.771011 
	C107.460411,26.965248 118.126503,22.576157 129.435898,21.301723 
	C141.410431,19.952341 153.661819,20.387533 165.338959,24.943737 
	C181.938385,31.420525 195.041779,41.717167 202.537720,58.219460 
	C205.805984,65.414574 208.231079,73.005142 211.693909,80.096375 
	C216.348831,89.628899 226.093063,94.909973 233.726700,92.692696 
	C241.633652,90.396011 248.509720,86.279602 254.682419,80.847015 
	C265.272980,71.526283 277.334137,65.518234 291.775635,66.053223 
	C313.659332,66.863914 332.111389,78.502205 339.862701,100.429100 
	C343.611450,111.033569 345.863708,122.158997 349.034241,132.977997 
	C352.829254,145.927887 357.808441,158.240173 369.713165,166.148911 
	C371.444061,167.298813 373.566162,167.868393 375.267426,169.051361 
	C376.375916,169.822144 377.050598,171.216766 377.919647,172.331924 
	C376.416229,172.573227 374.696716,173.413300 373.443542,172.961075 
	C363.421173,169.344299 357.014587,161.941498 351.873505,152.825943 
	C345.385223,141.321625 343.590393,128.458725 339.822815,116.145859 
	C337.059418,107.114693 333.694336,98.034935 329.021973,89.879402 
	C323.167999,79.661469 312.849274,74.654655 301.628479,72.079773 
	C285.723785,68.430061 271.714844,72.719238 259.382019,83.116875 
	C251.149170,90.057884 242.524582,96.608231 231.449844,97.711868 
	C225.589844,98.295830 220.063370,95.976868 215.391373,91.941467 
	C208.592728,86.069183 204.698425,78.518166 201.966415,70.174042 
	C198.862549,60.694134 194.931320,51.461979 187.737839,44.441250 
	C178.661575,35.582966 167.804062,29.374470 155.141006,27.066515 
	C149.377594,26.016081 143.486130,25.668343 137.189575,25.002045 
z"/>
<path fill="#aeb8de" opacity="1.000000" stroke="none" 
	d="
M128.046692,144.962128 
	C131.722015,142.443726 135.206451,139.559799 139.127609,137.512146 
	C142.874847,135.555313 147.076538,134.468674 151.834930,133.156342 
	C154.088684,133.492432 155.585968,133.671692 157.083252,133.850967 
	C170.489349,135.820877 179.197968,144.043945 184.168411,155.904770 
	C187.695999,164.322556 189.582230,173.428162 192.416351,182.950089 
	C191.874191,182.914505 192.592621,182.760452 193.070160,183.031250 
	C194.429367,183.801941 195.690384,184.745773 196.990051,185.621475 
	C195.445267,186.398224 193.893494,187.845215 192.356964,187.829208 
	C187.233749,187.775894 186.686661,183.710907 185.977295,179.805481 
	C184.156250,169.779602 182.118225,159.820587 176.042953,151.253113 
	C169.497528,142.022568 160.705307,136.397110 149.370941,138.341385 
	C144.211334,139.226456 139.379944,143.367386 134.923569,146.726501 
	C125.997108,153.455093 117.424438,152.610519 111.103264,143.113525 
	C109.276489,140.368958 108.251778,137.073471 106.982147,133.980164 
	C105.821297,131.151855 105.146904,128.081421 103.701942,125.419640 
	C97.983238,114.885178 87.129944,114.660797 78.482292,120.176590 
	C60.703274,131.516678 51.271923,148.564056 47.053524,168.771500 
	C46.024834,173.699234 45.796024,178.789688 44.924126,183.757004 
	C44.662468,185.247711 43.469158,186.574875 42.702660,187.976959 
	C41.807175,186.473007 40.025219,184.879944 40.165958,183.480179 
	C40.864941,176.528336 41.393536,169.441177 43.235310,162.746414 
	C47.392601,147.634903 54.899986,134.239044 66.292107,123.270721 
	C71.975441,117.798798 78.436989,112.991302 86.382309,112.182274 
	C97.782455,111.021454 105.114426,114.920174 110.085251,128.585693 
	C111.828369,133.377762 114.238953,137.988037 116.871460,142.364502 
	C117.873199,144.029861 120.353828,144.805664 122.758125,146.265747 
	C124.919449,146.017120 126.483070,145.489624 128.046692,144.962128 
z"/>
<path fill="#aeb8de" opacity="1.000000" stroke="none" 
	d="
M269.210327,161.333771 
	C281.736145,147.767517 296.664581,143.383881 313.837616,149.071533 
	C326.897278,153.396866 334.183167,163.583679 337.922516,176.429276 
	C338.683228,179.042435 339.020111,181.904831 338.858398,184.610870 
	C338.769073,186.105103 337.238556,187.513199 336.357727,188.960144 
	C335.572052,187.579620 334.090851,186.186752 334.115112,184.820602 
	C334.258331,176.749619 331.278046,169.936203 326.327972,163.834427 
	C317.364624,152.785538 305.920258,149.046158 292.124054,152.387848 
	C285.464355,154.000946 279.799072,157.284973 275.136200,162.336838 
	C273.105316,164.537140 270.884369,166.560715 268.803650,168.716583 
	C264.618134,173.053314 258.449066,174.328873 253.292862,171.187164 
	C248.285217,168.135941 242.341064,165.601746 236.843201,169.845108 
	C233.676132,172.289520 231.565048,176.114426 229.026718,179.355591 
	C227.867508,180.835770 226.824463,182.406937 225.728760,183.936829 
	C225.189301,181.868454 223.678955,179.460495 224.264740,177.785675 
	C228.757660,164.940170 240.648987,159.385208 253.047760,165.612137 
	C260.102753,169.155319 264.635284,168.293442 269.210327,161.333771 
z"/>
<path fill="#aeb8de" opacity="1.000000" stroke="none" 
	d="
M128.052246,144.547028 
	C126.483070,145.489624 124.919449,146.017120 123.128624,146.273163 
	C123.397865,142.524017 123.894302,139.046310 124.385895,135.602509 
	C114.892441,134.222092 114.980141,134.264069 118.992027,125.882645 
	C121.662170,120.304329 123.960823,114.548584 126.608131,108.958626 
	C127.161026,107.791161 128.514725,107.002953 129.499390,106.039963 
	C130.554718,107.151100 132.182495,108.092812 132.569885,109.401649 
	C134.644516,116.411186 136.517639,123.487602 138.148697,130.612274 
	C138.357773,131.525482 136.991425,133.425369 135.935379,133.868515 
	C133.898636,134.723206 131.562180,134.863708 129.515228,135.267715 
	C129.000870,138.396027 128.529327,141.263977 128.052246,144.547028 
M132.066254,129.888397 
	C131.269363,125.313820 130.472473,120.739250 129.675598,116.164673 
	C129.220993,116.230858 128.766373,116.297043 128.311768,116.363220 
	C126.312469,121.119026 124.313164,125.874832 122.099510,131.140533 
	C125.479279,130.710220 128.353088,130.344345 132.066254,129.888397 
z"/>
<path fill="#aeb8de" opacity="1.000000" stroke="none" 
	d="
M157.057831,133.402344 
	C155.585968,133.671692 154.088684,133.492432 152.241333,133.155914 
	C152.389175,127.471138 152.887054,121.943611 153.429794,115.918022 
	C151.639709,116.261536 150.694229,116.670921 149.813309,116.561340 
	C148.297302,116.372757 146.582825,116.184036 145.437149,115.337967 
	C144.922928,114.958206 145.219757,112.797607 145.768082,111.778389 
	C148.313858,107.046150 150.902313,102.312439 153.911362,97.874817 
	C154.501633,97.004326 158.266937,96.906906 158.458908,97.355492 
	C160.905197,103.071686 162.966476,108.952644 165.349579,115.397247 
	C162.055267,115.828842 160.315063,116.056831 158.084824,116.349022 
	C157.734940,121.869225 157.383667,127.411484 157.057831,133.402344 
M152.566010,109.905586 
	C152.524231,110.591339 152.482468,111.277092 152.440689,111.962845 
	C154.538818,111.962845 156.636932,111.962845 159.476364,111.962845 
	C158.291763,108.935898 157.348618,106.525917 156.034409,103.167786 
	C154.743774,105.706520 153.838348,107.487549 152.566010,109.905586 
z"/>
<path fill="none" opacity="1.000000" stroke="none" 
	d="
M131.646576,129.933426 
	C128.353088,130.344345 125.479279,130.710220 122.099510,131.140533 
	C124.313164,125.874832 126.312469,121.119026 128.311768,116.363220 
	C128.766373,116.297043 129.220993,116.230858 129.675598,116.164673 
	C130.472473,120.739250 131.269363,125.313820 131.646576,129.933426 
z"/>
<path fill="none" opacity="1.000000" stroke="none" 
	d="
M152.749451,109.587082 
	C153.838348,107.487549 154.743774,105.706520 156.034409,103.167786 
	C157.348618,106.525917 158.291763,108.935898 159.476364,111.962845 
	C156.636932,111.962845 154.538818,111.962845 152.440689,111.962845 
	C152.482468,111.277092 152.524231,110.591339 152.749451,109.587082 
z"/>
</svg>