<svg version="1.1" id="Layer_1" xmlns="http://www.w3.org/2000/svg" xmlns:xlink="http://www.w3.org/1999/xlink" x="0px" y="0px"
	 width="100%" viewBox="0 0 392 400" enable-background="new 0 0 392 400" xml:space="preserve">
<path fill="none" opacity="1.000000" stroke="none" 
	d="
M235.000000,401.000000 
	C156.691238,401.000000 78.882462,401.000000 1.036847,401.000000 
	C1.036847,267.733307 1.036847,134.466629 1.036847,1.099968 
	C131.558716,1.099968 262.117523,1.099968 392.838165,1.099968 
	C392.838165,134.333176 392.838165,267.666565 392.838165,401.000000 
	C340.466705,401.000000 287.983337,401.000000 235.000000,401.000000 
M124.036591,229.209656 
	C127.118134,240.403763 131.679779,250.950851 139.340897,259.751068 
	C155.755005,278.605774 177.311493,286.560699 201.660431,287.954620 
	C214.010834,288.661652 226.221588,287.220276 238.163834,283.976715 
	C254.588760,279.515656 268.998169,271.684387 278.388031,256.986115 
	C286.708893,243.961166 288.102814,228.813889 288.829071,213.923355 
	C289.644928,197.195740 287.133820,180.890564 280.198029,165.263275 
	C274.316589,152.011612 265.836365,141.328918 252.845016,135.110016 
	C234.066391,126.120743 214.514755,121.474403 193.355164,125.883560 
	C165.191635,131.752182 143.707581,146.487335 130.550949,172.138626 
	C121.464653,189.854050 119.954048,208.884766 124.036591,229.209656 
M135.015625,34.962486 
	C136.352905,37.898304 137.882019,40.763393 138.994949,43.781933 
	C144.403320,58.450592 149.665726,73.173019 155.055847,87.848488 
	C156.865234,92.774796 162.258270,95.514816 166.827469,94.046463 
	C172.938675,92.082558 176.553513,87.441002 174.779999,82.651314 
	C167.908615,64.093864 160.735367,45.647701 153.572464,27.199722 
	C153.091064,25.959888 151.924667,24.821075 150.800354,24.026596 
	C147.357498,21.593750 143.560074,20.974802 139.775070,23.102942 
	C135.491714,25.511292 134.472580,29.527952 135.015625,34.962486 
M61.008911,318.490631 
	C70.002014,311.166656 78.912529,303.737854 88.020767,296.559967 
	C93.081169,292.572021 94.494209,287.371124 91.217003,282.755096 
	C87.567780,277.615051 82.002769,276.401428 76.658234,279.927338 
	C60.959854,290.283844 47.404648,303.191071 34.162338,316.401794 
	C29.312105,321.240479 29.940546,326.896423 34.941044,331.461060 
	C39.169956,335.321350 44.576458,334.887848 49.204617,330.291565 
	C52.983948,326.538269 56.741108,322.762695 61.008911,318.490631 
M66.380180,88.058746 
	C68.303741,89.254494 70.474060,90.182312 72.110733,91.689583 
	C82.540924,101.295090 92.879936,111.000290 103.192970,120.732018 
	C107.886803,125.161285 112.803406,125.168610 117.476219,121.120216 
	C121.582726,117.562439 121.822136,111.107948 117.603767,107.017250 
	C109.578705,99.235046 102.038689,90.930748 93.747810,83.452393 
	C88.375748,78.606804 82.173470,74.613708 76.033478,70.728035 
	C74.145439,69.533195 70.976547,69.121246 68.836693,69.782623 
	C60.096413,72.484024 58.351807,81.356003 66.380180,88.058746 
M302.983887,119.511803 
	C304.314240,117.850861 305.355042,115.776543 307.027954,114.604576 
	C312.599701,110.701309 318.490356,107.254883 324.085480,103.382935 
	C330.350891,99.047112 336.675720,94.734024 342.498413,89.843910 
	C346.348694,86.610275 345.865265,79.475266 342.362823,76.110130 
	C338.597565,72.492508 332.754639,72.498131 328.766113,75.641579 
	C324.312103,79.151894 319.741638,82.593056 314.879944,85.490616 
	C305.615784,91.012054 296.163513,96.229057 289.015198,104.556053 
	C286.307098,107.710732 283.104706,110.924095 284.317139,115.657578 
	C286.569580,124.451363 297.182068,126.858215 302.983887,119.511803 
M81.502617,222.040619 
	C79.720184,216.192581 75.076485,212.130249 70.505653,213.064285 
	C57.712444,215.678482 44.921017,218.347153 32.248119,221.477081 
	C28.337986,222.442795 24.066151,224.212494 21.303867,226.963531 
	C18.097345,230.156982 17.657997,234.982620 20.664621,239.100388 
	C23.817181,243.418076 28.231749,243.641037 33.060726,242.506882 
	C45.449741,239.597153 57.876835,236.849854 70.272186,233.966614 
	C76.179428,232.592545 80.241478,232.000153 81.502617,222.040619 
M233.507080,57.991543 
	C231.457016,62.697475 229.271896,67.350227 227.392502,72.123360 
	C225.249573,77.565926 227.515182,82.851631 232.732162,85.225044 
	C238.196884,87.711166 243.293076,85.891609 245.951935,80.044762 
	C251.219223,68.461861 256.293671,56.790325 261.356384,45.115776 
	C263.543243,40.072891 261.494781,33.844193 257.122925,31.601145 
	C252.004837,28.975235 245.821655,30.632299 243.136993,36.080639 
	C239.729446,42.996006 236.980057,50.235672 233.507080,57.991543 
M57.364594,170.002594 
	C59.460320,170.281525 61.548321,170.677963 63.653282,170.816360 
	C69.010109,171.168564 74.442558,172.059464 79.717415,171.510757 
	C85.380112,170.921738 89.458054,165.668320 88.955704,161.349167 
	C88.261719,155.382477 83.830688,151.259842 77.441910,151.029465 
	C65.385185,150.594681 53.304642,150.614334 41.270252,149.863770 
	C36.235523,149.549774 31.453754,154.038635 30.991898,157.798111 
	C30.352859,162.999817 32.995369,168.000107 38.249676,168.919342 
	C44.179272,169.956741 50.335667,169.697784 57.364594,170.002594 
M366.989197,283.914001 
	C363.733124,281.605713 360.782104,278.440918 357.163025,277.151855 
	C346.857208,273.481079 336.308044,270.475494 325.794647,267.414154 
	C321.329559,266.114014 317.400421,267.262024 314.932953,271.528107 
	C310.970245,278.379364 313.103546,284.292969 320.761108,286.889832 
	C332.056274,290.720337 343.359253,294.603729 354.870941,297.668060 
	C357.848785,298.460754 362.361267,297.211182 364.826813,295.229828 
	C367.681427,292.935822 369.501251,288.888123 366.989197,283.914001 
M372.566711,156.954910 
	C375.868652,153.291138 376.080658,149.076096 373.549591,145.219971 
	C371.373932,141.905273 367.887756,138.885742 363.663147,140.198334 
	C351.830566,143.874695 340.085968,147.891220 328.503174,152.290878 
	C322.673126,154.505386 320.724976,160.015366 322.989044,164.972839 
	C325.668121,170.839005 330.946930,172.953964 336.820312,170.655441 
	C342.059692,168.605011 347.356140,166.700546 352.627686,164.732315 
	C359.085419,162.321198 365.543457,159.910797 372.566711,156.954910 
M227.647888,374.867554 
	C228.098160,373.495331 228.927155,372.126465 228.939224,370.750397 
	C229.042664,358.961182 229.087265,347.169586 228.950668,335.381042 
	C228.901520,331.138885 224.695648,325.241058 218.239655,325.910461 
	C212.734024,326.481323 209.026749,329.981293 209.009109,335.784882 
	C208.974289,347.242798 209.108948,358.702454 208.947357,370.158173 
	C208.876205,375.201202 211.446732,378.554443 215.746292,379.715332 
	C220.029175,380.871765 224.513077,380.084015 227.647888,374.867554 
M288.466644,342.978363 
	C294.630737,349.143890 300.968475,355.147827 306.902527,361.527344 
	C311.441345,366.406891 316.977478,365.936859 321.874176,362.489685 
	C325.851929,359.689484 326.428284,353.563232 322.328064,349.024475 
	C314.838715,340.734100 306.643433,333.075470 298.606567,325.293762 
	C297.686554,324.402954 295.923370,324.214081 294.508575,324.033997 
	C289.759338,323.429291 286.230560,325.678833 284.214691,329.683960 
	C281.612305,334.854401 283.803528,339.049194 288.466644,342.978363 
M134.521255,357.975922 
	C138.467178,352.050995 142.424805,346.133820 146.355286,340.198700 
	C149.470932,335.493988 148.915680,329.186249 144.924850,326.481506 
	C139.481201,322.792175 134.385666,322.902679 130.363235,328.280518 
	C124.642395,335.929047 119.258713,343.850342 114.101967,351.892975 
	C110.699776,357.199127 114.271812,364.779266 120.495041,365.967194 
	C126.709702,367.153534 128.904861,365.976532 134.521255,357.975922 
M370.000977,217.234192 
	C369.976257,210.066147 368.044159,207.624542 361.190552,205.968491 
	C355.087158,204.493713 348.986542,203.005081 342.903076,201.450653 
	C337.194580,199.992004 331.132477,203.069504 330.021515,208.076477 
	C328.615997,214.411255 331.885101,219.614456 338.122437,221.006348 
	C344.099213,222.340103 350.087708,223.626953 356.040558,225.060898 
	C363.699463,226.905792 366.802765,225.403763 370.000977,217.234192 
z"/>
<path fill="#4b65c8" opacity="1.000000" stroke="none" 
	d="
M124.019142,228.779602 
	C119.954048,208.884766 121.464653,189.854050 130.550949,172.138626 
	C143.707581,146.487335 165.191635,131.752182 193.355164,125.883560 
	C214.514755,121.474403 234.066391,126.120743 252.845016,135.110016 
	C265.836365,141.328918 274.316589,152.011612 280.198029,165.263275 
	C287.133820,180.890564 289.644928,197.195740 288.829071,213.923355 
	C288.102814,228.813889 286.708893,243.961166 278.388031,256.986115 
	C268.998169,271.684387 254.588760,279.515656 238.163834,283.976715 
	C226.221588,287.220276 214.010834,288.661652 201.660431,287.954620 
	C177.311493,286.560699 155.755005,278.605774 139.340897,259.751068 
	C131.679779,250.950851 127.118134,240.403763 124.019142,228.779602 
z"/>
<path fill="#4b65c8" opacity="1.000000" stroke="none" 
	d="
M135.007736,34.541870 
	C134.472580,29.527952 135.491714,25.511292 139.775070,23.102942 
	C143.560074,20.974802 147.357498,21.593750 150.800354,24.026596 
	C151.924667,24.821075 153.091064,25.959888 153.572464,27.199722 
	C160.735367,45.647701 167.908615,64.093864 174.779999,82.651314 
	C176.553513,87.441002 172.938675,92.082558 166.827469,94.046463 
	C162.258270,95.514816 156.865234,92.774796 155.055847,87.848488 
	C149.665726,73.173019 144.403320,58.450592 138.994949,43.781933 
	C137.882019,40.763393 136.352905,37.898304 135.007736,34.541870 
z"/>
<path fill="#4b65c8" opacity="1.000000" stroke="none" 
	d="
M60.758503,318.743805 
	C56.741108,322.762695 52.983948,326.538269 49.204617,330.291565 
	C44.576458,334.887848 39.169956,335.321350 34.941044,331.461060 
	C29.940546,326.896423 29.312105,321.240479 34.162338,316.401794 
	C47.404648,303.191071 60.959854,290.283844 76.658234,279.927338 
	C82.002769,276.401428 87.567780,277.615051 91.217003,282.755096 
	C94.494209,287.371124 93.081169,292.572021 88.020767,296.559967 
	C78.912529,303.737854 70.002014,311.166656 60.758503,318.743805 
z"/>
<path fill="#4b65c8" opacity="1.000000" stroke="none" 
	d="
M66.001877,88.034538 
	C58.351807,81.356003 60.096413,72.484024 68.836693,69.782623 
	C70.976547,69.121246 74.145439,69.533195 76.033478,70.728035 
	C82.173470,74.613708 88.375748,78.606804 93.747810,83.452393 
	C102.038689,90.930748 109.578705,99.235046 117.603767,107.017250 
	C121.822136,111.107948 121.582726,117.562439 117.476219,121.120216 
	C112.803406,125.168610 107.886803,125.161285 103.192970,120.732018 
	C92.879936,111.000290 82.540924,101.295090 72.110733,91.689583 
	C70.474060,90.182312 68.303741,89.254494 66.001877,88.034538 
z"/>
<path fill="#4b65c8" opacity="1.000000" stroke="none" 
	d="
M302.720276,119.771011 
	C297.182068,126.858215 286.569580,124.451363 284.317139,115.657578 
	C283.104706,110.924095 286.307098,107.710732 289.015198,104.556053 
	C296.163513,96.229057 305.615784,91.012054 314.879944,85.490616 
	C319.741638,82.593056 324.312103,79.151894 328.766113,75.641579 
	C332.754639,72.498131 338.597565,72.492508 342.362823,76.110130 
	C345.865265,79.475266 346.348694,86.610275 342.498413,89.843910 
	C336.675720,94.734024 330.350891,99.047112 324.085480,103.382935 
	C318.490356,107.254883 312.599701,110.701309 307.027954,114.604576 
	C305.355042,115.776543 304.314240,117.850861 302.720276,119.771011 
z"/>
<path fill="#4b65c8" opacity="1.000000" stroke="none" 
	d="
M81.714996,222.377258 
	C80.241478,232.000153 76.179428,232.592545 70.272186,233.966614 
	C57.876835,236.849854 45.449741,239.597153 33.060726,242.506882 
	C28.231749,243.641037 23.817181,243.418076 20.664621,239.100388 
	C17.657997,234.982620 18.097345,230.156982 21.303867,226.963531 
	C24.066151,224.212494 28.337986,222.442795 32.248119,221.477081 
	C44.921017,218.347153 57.712444,215.678482 70.505653,213.064285 
	C75.076485,212.130249 79.720184,216.192581 81.714996,222.377258 
z"/>
<path fill="#4b65c8" opacity="1.000000" stroke="none" 
	d="
M233.726990,57.663521 
	C236.980057,50.235672 239.729446,42.996006 243.136993,36.080639 
	C245.821655,30.632299 252.004837,28.975235 257.122925,31.601145 
	C261.494781,33.844193 263.543243,40.072891 261.356384,45.115776 
	C256.293671,56.790325 251.219223,68.461861 245.951935,80.044762 
	C243.293076,85.891609 238.196884,87.711166 232.732162,85.225044 
	C227.515182,82.851631 225.249573,77.565926 227.392502,72.123360 
	C229.271896,67.350227 231.457016,62.697475 233.726990,57.663521 
z"/>
<path fill="#4b65c8" opacity="1.000000" stroke="none" 
	d="
M56.879009,170.002609 
	C50.335667,169.697784 44.179272,169.956741 38.249676,168.919342 
	C32.995369,168.000107 30.352859,162.999817 30.991898,157.798111 
	C31.453754,154.038635 36.235523,149.549774 41.270252,149.863770 
	C53.304642,150.614334 65.385185,150.594681 77.441910,151.029465 
	C83.830688,151.259842 88.261719,155.382477 88.955704,161.349167 
	C89.458054,165.668320 85.380112,170.921738 79.717415,171.510757 
	C74.442558,172.059464 69.010109,171.168564 63.653282,170.816360 
	C61.548321,170.677963 59.460320,170.281525 56.879009,170.002609 
z"/>
<path fill="#4b65c8" opacity="1.000000" stroke="none" 
	d="
M367.084686,284.298767 
	C369.501251,288.888123 367.681427,292.935822 364.826813,295.229828 
	C362.361267,297.211182 357.848785,298.460754 354.870941,297.668060 
	C343.359253,294.603729 332.056274,290.720337 320.761108,286.889832 
	C313.103546,284.292969 310.970245,278.379364 314.932953,271.528107 
	C317.400421,267.262024 321.329559,266.114014 325.794647,267.414154 
	C336.308044,270.475494 346.857208,273.481079 357.163025,277.151855 
	C360.782104,278.440918 363.733124,281.605713 367.084686,284.298767 
z"/>
<path fill="#4b65c8" opacity="1.000000" stroke="none" 
	d="
M372.284058,157.227493 
	C365.543457,159.910797 359.085419,162.321198 352.627686,164.732315 
	C347.356140,166.700546 342.059692,168.605011 336.820312,170.655441 
	C330.946930,172.953964 325.668121,170.839005 322.989044,164.972839 
	C320.724976,160.015366 322.673126,154.505386 328.503174,152.290878 
	C340.085968,147.891220 351.830566,143.874695 363.663147,140.198334 
	C367.887756,138.885742 371.373932,141.905273 373.549591,145.219971 
	C376.080658,149.076096 375.868652,153.291138 372.284058,157.227493 
z"/>
<path fill="#4b65c8" opacity="1.000000" stroke="none" 
	d="
M227.366730,375.165283 
	C224.513077,380.084015 220.029175,380.871765 215.746292,379.715332 
	C211.446732,378.554443 208.876205,375.201202 208.947357,370.158173 
	C209.108948,358.702454 208.974289,347.242798 209.009109,335.784882 
	C209.026749,329.981293 212.734024,326.481323 218.239655,325.910461 
	C224.695648,325.241058 228.901520,331.138885 228.950668,335.381042 
	C229.087265,347.169586 229.042664,358.961182 228.939224,370.750397 
	C228.927155,372.126465 228.098160,373.495331 227.366730,375.165283 
z"/>
<path fill="#4b65c8" opacity="1.000000" stroke="none" 
	d="
M288.217590,342.717194 
	C283.803528,339.049194 281.612305,334.854401 284.214691,329.683960 
	C286.230560,325.678833 289.759338,323.429291 294.508575,324.033997 
	C295.923370,324.214081 297.686554,324.402954 298.606567,325.293762 
	C306.643433,333.075470 314.838715,340.734100 322.328064,349.024475 
	C326.428284,353.563232 325.851929,359.689484 321.874176,362.489685 
	C316.977478,365.936859 311.441345,366.406891 306.902527,361.527344 
	C300.968475,355.147827 294.630737,349.143890 288.217590,342.717194 
z"/>
<path fill="#4b65c8" opacity="1.000000" stroke="none" 
	d="
M134.263016,358.235596 
	C128.904861,365.976532 126.709702,367.153534 120.495041,365.967194 
	C114.271812,364.779266 110.699776,357.199127 114.101967,351.892975 
	C119.258713,343.850342 124.642395,335.929047 130.363235,328.280518 
	C134.385666,322.902679 139.481201,322.792175 144.924850,326.481506 
	C148.915680,329.186249 149.470932,335.493988 146.355286,340.198700 
	C142.424805,346.133820 138.467178,352.050995 134.263016,358.235596 
z"/>
<path fill="#4b65c8" opacity="1.000000" stroke="none" 
	d="
M369.999878,217.654480 
	C366.802765,225.403763 363.699463,226.905792 356.040558,225.060898 
	C350.087708,223.626953 344.099213,222.340103 338.122437,221.006348 
	C331.885101,219.614456 328.615997,214.411255 330.021515,208.076477 
	C331.132477,203.069504 337.194580,199.992004 342.903076,201.450653 
	C348.986542,203.005081 355.087158,204.493713 361.190552,205.968491 
	C368.044159,207.624542 369.976257,210.066147 369.999878,217.654480 
z"/>
</svg>