<svg version="1.1" id="Layer_1" xmlns="http://www.w3.org/2000/svg" xmlns:xlink="http://www.w3.org/1999/xlink" x="0px" y="0px"
	 width="100%" viewBox="0 0 400 307" enable-background="new 0 0 400 307" xml:space="preserve">
<path fill="none" opacity="1.000000" stroke="none" 
	d="
M287.000000,308.000000 
	C191.333344,308.000000 96.166702,308.000000 1.000038,308.000000 
	C1.000026,205.666702 1.000026,103.333405 1.000013,1.000079 
	C134.333267,1.000053 267.666534,1.000053 400.999878,1.000026 
	C400.999908,103.333252 400.999908,205.666504 400.999939,307.999878 
	C363.166656,308.000000 325.333344,308.000000 287.000000,308.000000 
M118.428421,74.057335 
	C117.285316,78.892693 115.631882,83.672562 115.098831,88.574257 
	C113.730530,101.156723 118.517525,112.477928 123.313156,123.685143 
	C127.986305,134.606125 133.801743,145.079254 135.609833,157.066833 
	C136.618637,163.755203 132.789795,174.367996 122.432152,174.173477 
	C112.594414,173.988724 106.402328,168.246002 101.380936,161.482422 
	C92.943489,150.117538 84.277145,139.154175 72.513580,131.055634 
	C62.315983,124.035164 51.863518,117.401329 38.593166,120.035568 
	C22.357101,123.258507 17.757593,133.968170 20.566652,147.966278 
	C22.857748,159.383270 31.170504,166.664917 40.774433,171.812042 
	C54.952343,179.410583 69.773140,185.800262 84.108551,193.119232 
	C89.118744,195.677170 94.193130,198.803162 98.028206,202.823883 
	C105.899986,211.076675 104.370079,223.548828 92.001160,227.229828 
	C81.929718,230.227127 72.097916,228.005188 62.231812,227.756180 
	C52.472748,227.509872 43.178738,228.451340 34.726269,233.170547 
	C26.371809,237.835037 21.210855,245.184525 20.029030,254.929062 
	C19.063063,262.893799 27.423708,273.741547 36.470032,277.059967 
	C44.517845,280.012085 52.518044,279.689423 60.960167,279.247345 
	C81.672508,278.162689 102.450096,278.100861 123.202499,278.048096 
	C176.856644,277.911713 230.511414,277.966339 284.165741,278.052460 
	C290.246033,278.062225 296.546112,277.870514 302.360779,279.315399 
	C316.178192,282.748871 330.041504,283.153473 343.875763,280.860535 
	C356.301605,278.801056 367.943665,274.645844 376.878418,264.753296 
	C385.304321,255.424164 384.391357,242.997498 374.706482,234.843109 
	C362.120422,224.246017 346.853241,222.980652 331.845886,223.384979 
	C320.371185,223.694138 309.021820,227.679596 297.558136,229.696793 
	C289.066223,231.191025 280.463287,232.893005 272.280670,228.070892 
	C266.709991,224.787994 261.940552,217.514694 263.078491,212.990875 
	C265.344116,203.984329 268.718262,199.848145 276.297668,198.022949 
	C281.943878,196.663284 287.673889,195.597748 293.239716,193.967896 
	C314.591339,187.715363 334.255676,177.891586 350.931519,163.191757 
	C360.190979,155.029526 361.194153,144.108322 350.876129,135.522247 
	C344.570984,130.275467 336.673279,129.636337 329.025330,131.565720 
	C311.513397,135.983521 296.887268,145.711990 283.767456,157.801788 
	C278.380951,162.765411 273.439728,168.208847 268.161957,173.294952 
	C263.185883,178.090302 255.172623,179.349411 250.784546,176.253677 
	C246.646805,173.334549 245.280151,168.088699 248.604568,161.130127 
	C252.049438,153.919479 256.800568,147.330032 261.017059,140.491501 
	C269.698578,126.411430 277.237640,111.980278 276.025787,94.644501 
	C275.690460,89.847504 273.988831,85.884239 270.039154,83.013901 
	C260.435425,76.034622 246.035828,80.595779 239.446518,89.173897 
	C230.165680,101.255890 223.729919,114.880692 218.834961,129.324081 
	C216.424088,136.437744 213.546677,143.526779 209.823517,150.021072 
	C206.704453,155.461639 201.010818,158.206421 194.528290,157.939362 
	C188.216690,157.679337 184.446518,153.285004 182.175369,148.150284 
	C180.123550,143.511429 178.629898,138.378922 178.145340,133.343323 
	C177.026291,121.714081 176.256531,110.016571 176.115753,98.337456 
	C175.970413,86.277199 172.147491,75.726074 164.766159,66.489098 
	C159.023300,59.302464 151.132202,54.672813 141.982529,55.352417 
	C130.830780,56.180729 122.894753,62.676502 118.428421,74.057335 
M220.625046,39.845005 
	C221.508698,31.726402 215.554764,21.007660 207.996643,17.843445 
	C207.023270,19.556519 205.004913,21.502522 205.263840,23.073082 
	C205.564972,24.899736 208.182510,26.218079 209.220428,28.077587 
	C211.043472,31.343655 212.754456,34.764954 213.728668,38.335102 
	C213.927155,39.062462 210.837952,41.304348 208.968857,41.867638 
	C202.220993,43.901234 199.399857,47.803017 198.881348,54.730225 
	C198.449127,60.504490 202.053131,64.050591 204.743332,68.194466 
	C206.684921,71.185181 207.044922,74.063454 203.975937,76.405640 
	C201.688431,78.151405 198.922043,79.293747 196.739410,81.142250 
	C195.725418,82.001022 195.229141,83.901871 195.238815,85.325279 
	C195.242676,85.889862 197.454620,87.134712 198.320938,86.885742 
	C204.112564,85.221306 209.346603,82.543159 211.982483,76.668495 
	C214.515656,71.022705 212.120255,66.393311 208.584686,62.087204 
	C202.783417,55.021572 204.129425,51.093185 212.430206,47.672058 
	C215.457565,46.424347 217.556305,42.923477 220.625046,39.845005 
M91.561981,96.019928 
	C90.683144,95.681808 89.761353,94.970680 88.932442,95.066147 
	C83.574364,95.683189 80.983421,92.773964 80.030952,88.059380 
	C79.423393,85.052063 78.870567,81.910011 79.081505,78.883308 
	C79.830261,68.139404 74.538933,66.316452 66.601837,65.031502 
	C61.578075,64.218201 59.091877,59.441147 61.604946,54.932571 
	C62.148438,53.957527 63.334511,53.041676 63.314213,52.118576 
	C63.280323,50.577068 62.894222,48.666424 61.896648,47.677776 
	C61.377209,47.162987 58.756920,47.854885 57.932659,48.767113 
	C56.574303,50.270432 55.814209,52.354851 54.958202,54.264378 
	C51.655605,61.631622 56.945889,71.007034 64.919235,71.996025 
	C73.002167,72.998604 73.002167,72.998611 73.001953,81.142067 
	C73.001900,83.141495 72.829994,85.158371 73.031044,87.137367 
	C73.979790,96.476120 78.523918,101.089745 86.624252,101.964828 
	C90.271210,102.358803 92.692352,101.086998 91.561981,96.019928 
M339.034637,82.799019 
	C337.141541,89.714668 337.156616,89.655785 330.302216,87.899529 
	C328.856506,87.529106 327.151978,87.393349 325.744232,87.785973 
	C319.997620,89.388741 316.402100,95.696541 315.915833,102.884499 
	C315.249542,112.733978 311.632416,113.972923 304.231171,112.815979 
	C302.931427,112.612801 301.433319,113.678444 300.026825,114.158112 
	C300.667694,115.594948 300.915558,117.564034 302.016876,118.377235 
	C306.997864,122.055061 317.032898,120.006874 319.905548,112.924896 
	C321.443878,109.132568 322.218658,104.981842 322.953003,100.923187 
	C324.130707,94.413872 326.183441,92.745972 332.028107,95.132553 
	C336.092743,96.792282 339.416382,96.048058 341.505280,92.782906 
	C344.135803,88.671112 345.992035,84.036476 347.858246,79.494263 
	C348.123566,78.848511 346.773895,77.007568 345.783997,76.539330 
	C344.931427,76.136055 343.121246,76.520645 342.451416,77.232010 
	C341.163971,78.599258 340.384125,80.444504 339.034637,82.799019 
z"/>
<path fill="#4b65c8" opacity="1.000000" stroke="none" 
	d="
M118.686310,73.760620 
	C122.894753,62.676502 130.830780,56.180729 141.982529,55.352417 
	C151.132202,54.672813 159.023300,59.302464 164.766159,66.489098 
	C172.147491,75.726074 175.970413,86.277199 176.115753,98.337456 
	C176.256531,110.016571 177.026291,121.714081 178.145340,133.343323 
	C178.629898,138.378922 180.123550,143.511429 182.175369,148.150284 
	C184.446518,153.285004 188.216690,157.679337 194.528290,157.939362 
	C201.010818,158.206421 206.704453,155.461639 209.823517,150.021072 
	C213.546677,143.526779 216.424088,136.437744 218.834961,129.324081 
	C223.729919,114.880692 230.165680,101.255890 239.446518,89.173897 
	C246.035828,80.595779 260.435425,76.034622 270.039154,83.013901 
	C273.988831,85.884239 275.690460,89.847504 276.025787,94.644501 
	C277.237640,111.980278 269.698578,126.411430 261.017059,140.491501 
	C256.800568,147.330032 252.049438,153.919479 248.604568,161.130127 
	C245.280151,168.088699 246.646805,173.334549 250.784546,176.253677 
	C255.172623,179.349411 263.185883,178.090302 268.161957,173.294952 
	C273.439728,168.208847 278.380951,162.765411 283.767456,157.801788 
	C296.887268,145.711990 311.513397,135.983521 329.025330,131.565720 
	C336.673279,129.636337 344.570984,130.275467 350.876129,135.522247 
	C361.194153,144.108322 360.190979,155.029526 350.931519,163.191757 
	C334.255676,177.891586 314.591339,187.715363 293.239716,193.967896 
	C287.673889,195.597748 281.943878,196.663284 276.297668,198.022949 
	C268.718262,199.848145 265.344116,203.984329 263.078491,212.990875 
	C261.940552,217.514694 266.709991,224.787994 272.280670,228.070892 
	C280.463287,232.893005 289.066223,231.191025 297.558136,229.696793 
	C309.021820,227.679596 320.371185,223.694138 331.845886,223.384979 
	C346.853241,222.980652 362.120422,224.246017 374.706482,234.843109 
	C384.391357,242.997498 385.304321,255.424164 376.878418,264.753296 
	C367.943665,274.645844 356.301605,278.801056 343.875763,280.860535 
	C330.041504,283.153473 316.178192,282.748871 302.360779,279.315399 
	C296.546112,277.870514 290.246033,278.062225 284.165741,278.052460 
	C230.511414,277.966339 176.856644,277.911713 123.202499,278.048096 
	C102.450096,278.100861 81.672508,278.162689 60.960167,279.247345 
	C52.518044,279.689423 44.517845,280.012085 36.470032,277.059967 
	C27.423708,273.741547 19.063063,262.893799 20.029030,254.929062 
	C21.210855,245.184525 26.371809,237.835037 34.726269,233.170547 
	C43.178738,228.451340 52.472748,227.509872 62.231812,227.756180 
	C72.097916,228.005188 81.929718,230.227127 92.001160,227.229828 
	C104.370079,223.548828 105.899986,211.076675 98.028206,202.823883 
	C94.193130,198.803162 89.118744,195.677170 84.108551,193.119232 
	C69.773140,185.800262 54.952343,179.410583 40.774433,171.812042 
	C31.170504,166.664917 22.857748,159.383270 20.566652,147.966278 
	C17.757593,133.968170 22.357101,123.258507 38.593166,120.035568 
	C51.863518,117.401329 62.315983,124.035164 72.513580,131.055634 
	C84.277145,139.154175 92.943489,150.117538 101.380936,161.482422 
	C106.402328,168.246002 112.594414,173.988724 122.432152,174.173477 
	C132.789795,174.367996 136.618637,163.755203 135.609833,157.066833 
	C133.801743,145.079254 127.986305,134.606125 123.313156,123.685143 
	C118.517525,112.477928 113.730530,101.156723 115.098831,88.574257 
	C115.631882,83.672562 117.285316,78.892693 118.686310,73.760620 
z"/>
<path fill="#ffffff" opacity="1.000000" stroke="none" 
	d="
M220.351868,40.147778 
	C217.556305,42.923477 215.457565,46.424347 212.430206,47.672058 
	C204.129425,51.093185 202.783417,55.021572 208.584686,62.087204 
	C212.120255,66.393311 214.515656,71.022705 211.982483,76.668495 
	C209.346603,82.543159 204.112564,85.221306 198.320938,86.885742 
	C197.454620,87.134712 195.242676,85.889862 195.238815,85.325279 
	C195.229141,83.901871 195.725418,82.001022 196.739410,81.142250 
	C198.922043,79.293747 201.688431,78.151405 203.975937,76.405640 
	C207.044922,74.063454 206.684921,71.185181 204.743332,68.194466 
	C202.053131,64.050591 198.449127,60.504490 198.881348,54.730225 
	C199.399857,47.803017 202.220993,43.901234 208.968857,41.867638 
	C210.837952,41.304348 213.927155,39.062462 213.728668,38.335102 
	C212.754456,34.764954 211.043472,31.343655 209.220428,28.077587 
	C208.182510,26.218079 205.564972,24.899736 205.263840,23.073082 
	C205.004913,21.502522 207.023270,19.556519 207.996643,17.843445 
	C215.554764,21.007660 221.508698,31.726402 220.351868,40.147778 
z"/>
<path fill="#ffffff" opacity="1.000000" stroke="none" 
	d="
M91.772659,96.400787 
	C92.692352,101.086998 90.271210,102.358803 86.624252,101.964828 
	C78.523918,101.089745 73.979790,96.476120 73.031044,87.137367 
	C72.829994,85.158371 73.001900,83.141495 73.001953,81.142067 
	C73.002167,72.998611 73.002167,72.998604 64.919235,71.996025 
	C56.945889,71.007034 51.655605,61.631622 54.958202,54.264378 
	C55.814209,52.354851 56.574303,50.270432 57.932659,48.767113 
	C58.756920,47.854885 61.377209,47.162987 61.896648,47.677776 
	C62.894222,48.666424 63.280323,50.577068 63.314213,52.118576 
	C63.334511,53.041676 62.148438,53.957527 61.604946,54.932571 
	C59.091877,59.441147 61.578075,64.218201 66.601837,65.031502 
	C74.538933,66.316452 79.830261,68.139404 79.081505,78.883308 
	C78.870567,81.910011 79.423393,85.052063 80.030952,88.059380 
	C80.983421,92.773964 83.574364,95.683189 88.932442,95.066147 
	C89.761353,94.970680 90.683144,95.681808 91.772659,96.400787 
z"/>
<path fill="#ffffff" opacity="1.000000" stroke="none" 
	d="
M339.214203,82.445251 
	C340.384125,80.444504 341.163971,78.599258 342.451416,77.232010 
	C343.121246,76.520645 344.931427,76.136055 345.783997,76.539330 
	C346.773895,77.007568 348.123566,78.848511 347.858246,79.494263 
	C345.992035,84.036476 344.135803,88.671112 341.505280,92.782906 
	C339.416382,96.048058 336.092743,96.792282 332.028107,95.132553 
	C326.183441,92.745972 324.130707,94.413872 322.953003,100.923187 
	C322.218658,104.981842 321.443878,109.132568 319.905548,112.924896 
	C317.032898,120.006874 306.997864,122.055061 302.016876,118.377235 
	C300.915558,117.564034 300.667694,115.594948 300.026825,114.158112 
	C301.433319,113.678444 302.931427,112.612801 304.231171,112.815979 
	C311.632416,113.972923 315.249542,112.733978 315.915833,102.884499 
	C316.402100,95.696541 319.997620,89.388741 325.744232,87.785973 
	C327.151978,87.393349 328.856506,87.529106 330.302216,87.899529 
	C337.156616,89.655785 337.141541,89.714668 339.214203,82.445251 
z"/>
</svg>